<?xml version="1.0" encoding="utf-8"?>
<!-- Generator: Adobe Illustrator 25.2.3, SVG Export Plug-In . SVG Version: 6.00 Build 0)  -->
<svg version="1.1" id="Capa_1" xmlns="http://www.w3.org/2000/svg" xmlns:xlink="http://www.w3.org/1999/xlink" x="0px" y="0px"
	 viewBox="0 0 26 25" style="enable-background:new 0 0 26 25;" xml:space="preserve">
<style type="text/css">
	.st0{fill:#FFFFFF;}
</style>
<path class="st0" d="M20.1,2.3h-1v-1c0-0.6-0.5-1-1-1s-1,0.5-1,1v1H8.9v-1c0-0.6-0.5-1-1-1s-1,0.5-1,1v1h-1c-2.8,0-5.1,2.3-5.1,5.1
	v12.2c0,2.8,2.3,5.1,5.1,5.1h14.2c2.8,0,5.1-2.3,5.1-5.1V7.4C25.2,4.6,22.9,2.3,20.1,2.3z M5.9,4.4h14.2c1.7,0,3,1.4,3,3v1H2.8v-1
	C2.8,5.7,4.2,4.4,5.9,4.4z M20.1,22.7H5.9c-1.7,0-3-1.4-3-3v-9.1h20.3v9.1C23.2,21.3,21.8,22.7,20.1,22.7z M20.1,14.5
	c0,0.6-0.5,1-1,1H6.9c-0.6,0-1-0.5-1-1c0-0.6,0.5-1,1-1h12.2C19.7,13.5,20.1,14,20.1,14.5z M13,18.6c0,0.6-0.5,1-1,1H6.9
	c-0.6,0-1-0.5-1-1c0-0.6,0.5-1,1-1H12C12.5,17.6,13,18,13,18.6z"/>
</svg>
