<svg width="27" height="27" viewBox="0 0 27 27" fill="none" xmlns="http://www.w3.org/2000/svg">
<g clip-path="url(#clip0_262_33)">
<path d="M12.4167 15.125C12.4167 14.2258 13.1425 13.5 14.0417 13.5C14.9408 13.5 15.6667 14.2258 15.6667 15.125C15.6667 16.0242 14.9408 16.75 14.0417 16.75C13.1425 16.75 12.4167 16.0242 12.4167 15.125ZM14.0417 22.1667C14.9408 22.1667 15.6667 21.4408 15.6667 20.5417C15.6667 19.6425 14.9408 18.9167 14.0417 18.9167C13.1425 18.9167 12.4167 19.6425 12.4167 20.5417C12.4167 21.4408 13.1425 22.1667 14.0417 22.1667ZM19.4583 16.75C20.3575 16.75 21.0833 16.0242 21.0833 15.125C21.0833 14.2258 20.3575 13.5 19.4583 13.5C18.5592 13.5 17.8333 14.2258 17.8333 15.125C17.8333 16.0242 18.5592 16.75 19.4583 16.75ZM19.4583 22.1667C20.3575 22.1667 21.0833 21.4408 21.0833 20.5417C21.0833 19.6425 20.3575 18.9167 19.4583 18.9167C18.5592 18.9167 17.8333 19.6425 17.8333 20.5417C17.8333 21.4408 18.5592 22.1667 19.4583 22.1667ZM26.5 4.93083V26.5H0.5V8.08333C0.5 6.29583 1.9625 4.83333 3.75 4.83333H5.91667C7.70417 4.83333 9.16667 6.29583 9.16667 8.08333V9.16667H11.3333V3.75C11.3333 1.9625 12.7958 0.5 14.5833 0.5H22.0692L26.5 4.93083ZM7 8.08333C7 7.4875 6.5125 7 5.91667 7H3.75C3.15417 7 2.66667 7.4875 2.66667 8.08333V24.3333H7V8.08333ZM24.3333 11.3333H9.16667V24.3333H24.3333V11.3333ZM24.3333 9.16667V5.91667H21.0833V2.66667H14.5833C13.9875 2.66667 13.5 3.15417 13.5 3.75V9.16667H24.3333Z" fill="white"/>
</g>
<defs>
<clipPath id="clip0_262_33">
<rect width="26" height="26" fill="white" transform="translate(0.5 0.5)"/>
</clipPath>
</defs>
</svg>
