<svg width="243" height="39" viewBox="0 0 243 39" fill="none" xmlns="http://www.w3.org/2000/svg">
<path d="M0.497559 31.0484V9.98792C0.718658 4.87246 4.68765 0.33197 8.88314 0.33197H27.2451C34.0345 0.33197 41.6166 8.89132 41.6166 14.155C41.6166 14.155 42.6142 19.0867 38.7315 22.252C35.3233 25.032 12.6742 36.9701 12.6742 36.9701C8.08503 39.3885 0.497559 36.5373 0.497559 31.0484Z" fill="#49BEB6"/>
<path d="M47.608 0H45.6127V38.1792H47.608V0Z" fill="#056061"/>
<path d="M64.1093 10.2486C64.6863 11.0014 64.9721 11.9676 64.9721 13.1531C64.9721 14.6765 64.4598 15.8442 63.4406 16.6622C62.416 17.4802 60.9061 17.8892 58.9108 17.8892H51.4851V0.148132H58.447C60.2482 0.148132 61.6395 0.545274 62.6317 1.33956C63.624 2.13385 64.1201 3.26009 64.1201 4.71233C64.1201 5.69037 63.899 6.52616 63.4622 7.20783C63.0254 7.88949 62.4214 8.40519 61.6503 8.74306C62.718 8.99794 63.5323 9.50178 64.1093 10.2486ZM53.1946 1.69522V8.13252H58.3392C59.6442 8.13252 60.6526 7.85985 61.3591 7.30859C62.0655 6.75733 62.4214 5.96304 62.4214 4.91387C62.4214 3.86469 62.0655 3.07041 61.3591 2.51915C60.6526 1.96789 59.6442 1.69522 58.3392 1.69522H53.1946ZM62.1626 15.536C62.9014 14.9966 63.2681 14.149 63.2681 12.999C63.2681 10.7821 61.8067 9.67961 58.8892 9.67961H53.1946V16.3481H58.8892C60.3345 16.3481 61.4238 16.0754 62.1626 15.536Z" fill="#056061"/>
<path d="M80.3469 2.01536C81.5548 3.36091 82.1588 5.29921 82.1588 7.83027V17.8952H80.4763V12.6731H70.3273V17.8952H68.6664V7.83027C68.6664 5.29328 69.2704 3.35498 70.4783 2.01536C71.6863 0.669808 73.3256 0 75.4018 0C77.4888 0 79.1389 0.669808 80.3469 2.01536ZM80.4763 11.0489V7.65245C80.4763 5.67858 80.0287 4.18484 79.1389 3.17716C78.2491 2.16948 77.0034 1.67156 75.4018 1.67156C73.8002 1.67156 72.5599 2.17541 71.6647 3.17716C70.7749 4.18484 70.3273 5.67265 70.3273 7.65245V11.0489H80.4763Z" fill="#056061"/>
<path d="M98.8653 1.89681C99.9654 3.1653 100.515 4.9732 100.515 7.3205V17.8893H98.806V7.36792C98.806 5.49482 98.3854 4.07222 97.5388 3.11196C96.6921 2.15169 95.5111 1.66564 93.985 1.66564C92.3834 1.66564 91.1431 2.1754 90.2479 3.20086C89.3581 4.22633 88.9105 5.75564 88.9105 7.80064V17.8893H87.2064V0.148188H88.8458V3.14159C89.8758 1.04918 91.6985 0 94.3085 0C96.2445 0 97.7652 0.634244 98.8653 1.89681Z" fill="#056061"/>
<path d="M108.249 16.8815C106.965 16.105 105.957 15.0262 105.229 13.651C104.501 12.2759 104.134 10.7347 104.134 9.02757C104.134 7.32044 104.501 5.77928 105.229 4.40409C105.957 3.0289 106.971 1.95009 108.259 1.17358C109.554 0.397077 110.999 0.00585938 112.595 0.00585938C113.792 0.00585938 114.903 0.225178 115.917 0.663816C116.931 1.10245 117.794 1.74855 118.5 2.59026L117.416 3.7817C116.154 2.37687 114.563 1.67743 112.644 1.67743C111.366 1.67743 110.206 1.99751 109.16 2.63769C108.114 3.27786 107.294 4.16106 106.706 5.27544C106.113 6.38981 105.817 7.64052 105.817 9.02757C105.817 10.4146 106.113 11.6653 106.706 12.7797C107.3 13.8941 108.119 14.7713 109.16 15.4174C110.201 16.0635 111.366 16.3777 112.644 16.3777C114.58 16.3777 116.17 15.6664 117.416 14.2497L118.5 15.4412C117.794 16.2888 116.925 16.9349 115.906 17.3795C114.882 17.83 113.771 18.0493 112.574 18.0493C110.977 18.0433 109.532 17.6581 108.249 16.8815Z" fill="#056061"/>
<path d="M124.437 16.8697C123.138 16.0813 122.124 15.0084 121.391 13.6392C120.657 12.2699 120.296 10.7347 120.296 9.02757C120.296 7.32044 120.663 5.78521 121.391 4.41595C122.119 3.04669 123.138 1.96788 124.437 1.18544C125.737 0.39708 127.182 0.00585938 128.784 0.00585938C130.38 0.00585938 131.825 0.397077 133.109 1.17358C134.392 1.95009 135.401 3.0289 136.14 4.40409C136.878 5.7852 137.245 7.32636 137.245 9.02757C137.245 10.7347 136.878 12.2759 136.14 13.651C135.401 15.0262 134.392 16.105 133.109 16.8815C131.825 17.6581 130.386 18.0493 128.784 18.0493C127.188 18.0433 125.737 17.6521 124.437 16.8697ZM132.246 15.4234C133.276 14.7891 134.085 13.9119 134.667 12.7856C135.25 11.6594 135.541 10.4087 135.541 9.02164C135.541 7.6346 135.25 6.38389 134.667 5.25765C134.085 4.13142 133.276 3.25415 132.246 2.6199C131.216 1.98566 130.062 1.67149 128.789 1.67149C127.511 1.67149 126.357 1.98566 125.316 2.6199C124.281 3.25415 123.461 4.13142 122.874 5.25765C122.28 6.38389 121.984 7.6346 121.984 9.02164C121.984 10.4087 122.28 11.6594 122.874 12.7856C123.467 13.9119 124.281 14.7891 125.316 15.4234C126.352 16.0576 127.511 16.3718 128.789 16.3718C130.062 16.3718 131.216 16.0576 132.246 15.4234Z" fill="#056061"/>
<path d="M64.5626 20.2781V38.0192H62.9233V35.0258C61.8609 37.1182 60.0544 38.1674 57.5036 38.1674C55.5838 38.1674 54.0739 37.5331 52.9846 36.2646C51.8953 34.9962 51.3452 33.1882 51.3452 30.8409V20.2722H53.0547V30.7935C53.0547 32.6726 53.4753 34.0892 54.3112 35.0554C55.147 36.0157 56.3226 36.5017 57.8272 36.5017C59.4126 36.5017 60.6422 35.992 61.5266 34.9665C62.411 33.947 62.8531 32.4117 62.8531 30.3667V20.2781H64.5626Z" fill="#056061"/>
<path d="M81.4093 22.0267C82.5094 23.2952 83.0594 25.1031 83.0594 27.4504V38.0192H81.35V27.5038C81.35 25.6307 80.9293 24.2081 80.0827 23.2478C79.236 22.2875 78.0551 21.8015 76.5289 21.8015C74.9273 21.8015 73.687 22.3113 72.7918 23.3367C71.902 24.3622 71.4544 25.8915 71.4544 27.9365V38.0251H69.7504V20.284H71.3897V23.2774C72.4197 21.185 74.2424 20.1358 76.8525 20.1358C78.7885 20.1299 80.3092 20.7582 81.4093 22.0267Z" fill="#056061"/>
<path d="M91.4504 21.9022V36.401H94.7237V38.0251H86.4891V36.401H89.7625V21.9022H86.4891V20.2781H94.7237V21.9022H91.4504Z" fill="#056061"/>
<path d="M111.721 20.2781L104.571 38.0192H102.888L95.7375 20.2781H97.5818L103.762 35.6897L109.99 20.2781H111.721Z" fill="#056061"/>
<path d="M125.37 35.9979C124.707 36.6914 123.828 37.2249 122.728 37.6102C121.628 37.9896 120.409 38.1792 119.072 38.1792C117.659 38.1792 116.456 37.9658 115.464 37.545C114.472 37.1241 113.727 36.5373 113.226 35.7964C112.724 35.0554 112.476 34.2019 112.476 33.2357C112.476 32.1687 112.762 31.2677 113.339 30.5209C113.916 29.7799 114.671 29.2642 115.609 28.9738C114.838 28.6537 114.24 28.1439 113.808 27.4385C113.377 26.7391 113.161 25.9152 113.161 24.9668C113.161 24.0717 113.393 23.2537 113.862 22.5187C114.331 21.7837 115.038 21.2028 115.982 20.7701C116.925 20.3374 118.068 20.124 119.406 20.124C120.393 20.124 121.347 20.2484 122.275 20.4915C123.202 20.7345 124 21.0842 124.664 21.5406L124.135 23.0344C122.722 22.1571 121.169 21.7185 119.476 21.7185C117.982 21.7185 116.844 22.0326 116.052 22.655C115.259 23.2774 114.865 24.0895 114.865 25.0853C114.865 26.0811 115.183 26.8517 115.82 27.3911C116.456 27.9305 117.362 28.2032 118.527 28.2032H122.539V29.8273H118.457C117.136 29.8273 116.089 30.1 115.318 30.6513C114.547 31.2025 114.164 32.0146 114.164 33.0993C114.164 34.1663 114.585 35.008 115.421 35.6363C116.257 36.2646 117.491 36.5729 119.12 36.5729C120.258 36.5729 121.32 36.395 122.302 36.0394C123.283 35.6837 124.087 35.1977 124.701 34.5694L125.37 35.9979Z" fill="#056061"/>
<path d="M139.418 38.0252L135.73 32.3229C135.315 32.3762 134.883 32.3999 134.436 32.3999H130.1V38.0252H128.396V20.2841H134.436C136.496 20.2841 138.108 20.8235 139.278 21.9082C140.448 22.9929 141.031 24.4748 141.031 26.3716C141.031 27.7587 140.713 28.9264 140.076 29.8807C139.44 30.8351 138.529 31.5227 137.342 31.9435L141.284 38.0252H139.418ZM138.054 29.6318C138.901 28.8553 139.321 27.7646 139.321 26.3598C139.321 24.9253 138.901 23.8228 138.054 23.0522C137.207 22.2816 135.989 21.8963 134.387 21.8963H130.1V30.7936H134.387C135.989 30.7995 137.213 30.4083 138.054 29.6318Z" fill="#056061"/>
<path d="M146.003 37.5391C144.903 37.1182 144.056 36.561 143.452 35.8675L144.121 34.4212C144.703 35.0613 145.48 35.583 146.45 35.9801C147.421 36.3773 148.419 36.5729 149.449 36.5729C150.894 36.5729 151.978 36.2824 152.7 35.6956C153.423 35.1147 153.784 34.356 153.784 33.4254C153.784 32.714 153.59 32.1509 153.197 31.7301C152.803 31.3092 152.323 30.9832 151.757 30.752C151.185 30.5268 150.398 30.2778 149.384 30.0052C148.171 29.6673 147.2 29.3413 146.477 29.0271C145.755 28.713 145.135 28.2388 144.622 27.5927C144.105 26.9525 143.851 26.0811 143.851 24.9846C143.851 24.0895 144.067 23.2715 144.498 22.5365C144.93 21.8015 145.588 21.2146 146.483 20.776C147.372 20.3374 148.483 20.118 149.805 20.118C150.727 20.118 151.633 20.2544 152.512 20.5389C153.396 20.8175 154.162 21.2028 154.804 21.6948L154.227 23.1885C153.552 22.6965 152.83 22.329 152.059 22.086C151.288 21.8429 150.538 21.7185 149.799 21.7185C148.386 21.7185 147.319 22.0208 146.607 22.6195C145.89 23.2181 145.534 23.9946 145.534 24.9371C145.534 25.6484 145.728 26.2175 146.121 26.6502C146.515 27.0829 147.006 27.4089 147.599 27.6401C148.192 27.8653 148.985 28.1202 149.988 28.3869C151.169 28.707 152.129 29.0271 152.857 29.3354C153.585 29.6495 154.205 30.1237 154.712 30.752C155.219 31.3863 155.472 32.2458 155.472 33.3246C155.472 34.2196 155.251 35.0376 154.814 35.7727C154.378 36.5077 153.703 37.0886 152.798 37.5213C151.892 37.954 150.775 38.1674 149.454 38.1674C148.246 38.1733 147.097 37.9658 146.003 37.5391Z" fill="#056061"/>
<path d="M162.455 21.9022V36.401H165.729V38.0251H157.494V36.401H160.767V21.9022H157.494V20.2781H165.729V21.9022H162.455Z" fill="#056061"/>
<path d="M179.496 23.5501C177.911 22.5365 176.158 21.9556 174.238 21.8015V38.0252H172.529V21.8015C170.636 21.9378 168.878 22.5187 167.25 23.5501L166.629 22.0801C168.63 20.782 170.873 20.1299 173.365 20.1299C175.899 20.1299 178.153 20.782 180.122 22.0801L179.496 23.5501Z" fill="#056061"/>
<path d="M193.943 22.1453C195.151 23.4909 195.755 25.4292 195.755 27.9602V38.0252H194.073V32.803H183.924V38.0252H182.263V27.9602C182.263 25.4232 182.867 23.4849 184.075 22.1453C185.283 20.7998 186.922 20.1299 188.998 20.1299C191.085 20.1299 192.735 20.7998 193.943 22.1453ZM194.073 31.1789V27.7824C194.073 25.8085 193.625 24.3148 192.735 23.3071C191.845 22.2994 190.6 21.8015 188.998 21.8015C187.397 21.8015 186.156 22.3053 185.261 23.3071C184.371 24.3148 183.924 25.8026 183.924 27.7824V31.1789H194.073Z" fill="#056061"/>
<path d="M211.825 38.0252L208.137 32.3229C207.722 32.3762 207.29 32.3999 206.843 32.3999H202.507V38.0252H200.803V20.2841H206.843C208.903 20.2841 210.515 20.8235 211.685 21.9082C212.855 22.9929 213.438 24.4748 213.438 26.3716C213.438 27.7587 213.12 28.9264 212.483 29.8807C211.847 30.8351 210.936 31.5227 209.749 31.9435L213.691 38.0252H211.825ZM210.466 29.6318C211.313 28.8553 211.734 27.7646 211.734 26.3598C211.734 24.9253 211.313 23.8228 210.466 23.0522C209.62 22.2816 208.401 21.8963 206.799 21.8963H202.512V30.7936H206.799C208.396 30.7995 209.62 30.4083 210.466 29.6318Z" fill="#056061"/>
<path d="M220.75 21.9022V36.401H224.024V38.0251H215.789V36.401H219.062V21.9022H215.789V20.2781H224.024V21.9022H220.75Z" fill="#056061"/>
<path d="M230.193 36.9938C228.893 36.2054 227.879 35.1325 227.146 33.7633C226.412 32.394 226.051 30.8588 226.051 29.1517C226.051 27.4445 226.418 25.9093 227.146 24.54C227.874 23.1708 228.893 22.092 230.193 21.3095C231.492 20.5212 232.937 20.1299 234.539 20.1299C236.135 20.1299 237.581 20.5212 238.864 21.2977C240.147 22.0742 241.156 23.153 241.895 24.5282C242.633 25.9093 243 27.4505 243 29.1517C243 30.8588 242.633 32.3999 241.895 33.7751C241.156 35.1503 240.147 36.2291 238.864 37.0056C237.581 37.7821 236.141 38.1734 234.539 38.1734C232.943 38.1734 231.492 37.7821 230.193 36.9938ZM238.001 35.5534C239.031 34.9191 239.84 34.0419 240.422 32.9156C241.005 31.7894 241.296 30.5387 241.296 29.1517C241.296 27.7646 241.005 26.5139 240.422 25.3877C239.84 24.2614 239.031 23.3842 238.001 22.7499C236.971 22.1157 235.817 21.8015 234.544 21.8015C233.266 21.8015 232.112 22.1157 231.072 22.7499C230.036 23.3842 229.217 24.2614 228.629 25.3877C228.036 26.5139 227.739 27.7646 227.739 29.1517C227.739 30.5387 228.036 31.7894 228.629 32.9156C229.222 34.0419 230.036 34.9191 231.072 35.5534C232.107 36.1876 233.266 36.5018 234.544 36.5018C235.817 36.5018 236.971 36.1876 238.001 35.5534Z" fill="#056061"/>
</svg>
