<svg width="328" height="52" viewBox="0 0 328 52" fill="none" xmlns="http://www.w3.org/2000/svg">
<path d="M0.942871 41.631V13.3922C1.24026 6.53314 6.57875 0.445068 12.2219 0.445068H36.9197C46.0517 0.445068 56.2499 11.9218 56.2499 18.9795C56.2499 18.9795 57.5918 25.5922 52.3694 29.8363C47.7852 33.5639 17.321 49.571 17.321 49.571C11.1484 52.8137 0.942871 48.9907 0.942871 41.631Z" fill="white"/>
<path d="M64.3084 0H61.6246V51.1923H64.3084V0Z" fill="white"/>
<path d="M86.5039 13.7419C87.28 14.7513 87.6644 16.0468 87.6644 17.6364C87.6644 19.679 86.9753 21.2447 85.6044 22.3415C84.2263 23.4383 82.1954 23.9867 79.5116 23.9867H69.5237V0.19873H78.8878C81.3104 0.19873 83.1818 0.731234 84.5164 1.79625C85.8511 2.86127 86.5184 4.37137 86.5184 6.3186C86.5184 7.63 86.221 8.75066 85.6335 9.66466C85.0459 10.5787 84.2336 11.2701 83.1963 11.7232C84.6325 12.0649 85.7277 12.7405 86.5039 13.7419ZM71.823 2.27313V10.9045H78.7427C80.4981 10.9045 81.8544 10.5389 82.8046 9.79978C83.7548 9.06062 84.2335 7.9956 84.2335 6.58882C84.2335 5.18205 83.7548 4.11704 82.8046 3.37788C81.8544 2.63873 80.4981 2.27313 78.7427 2.27313H71.823ZM83.8854 20.8314C84.8791 20.1082 85.3723 18.9716 85.3723 17.4297C85.3723 14.4572 83.4067 12.9789 79.4826 12.9789H71.823V21.9203H79.4826C81.4265 21.9203 82.8917 21.5547 83.8854 20.8314Z" fill="white"/>
<path d="M108.344 2.70228C109.968 4.50645 110.781 7.1054 110.781 10.4992V23.9947H108.518V16.9926H94.8669V23.9947H92.6328V10.4992C92.6328 7.09746 93.4452 4.4985 95.07 2.70228C96.6947 0.898106 98.8997 0 101.692 0C104.499 0 106.719 0.898106 108.344 2.70228ZM108.518 14.8149V10.2607C108.518 7.61408 107.916 5.61121 106.719 4.26007C105.522 2.90893 103.847 2.2413 101.692 2.2413C99.538 2.2413 97.8698 2.91687 96.6657 4.26007C95.4689 5.61121 94.8669 7.60613 94.8669 10.2607V14.8149H108.518Z" fill="white"/>
<path d="M133.252 2.54332C134.732 4.24417 135.471 6.66827 135.471 9.81563V23.9867H133.172V9.87922C133.172 7.36768 132.606 5.4602 131.468 4.17264C130.329 2.88508 128.74 2.23335 126.688 2.23335C124.533 2.23335 122.865 2.91687 121.661 4.29185C120.464 5.66684 119.862 7.7174 119.862 10.4594V23.9867H117.57V0.198697H119.775V4.21238C121.16 1.40678 123.612 0 127.123 0C129.727 0 131.772 0.850421 133.252 2.54332Z" fill="white"/>
<path d="M145.873 22.6357C144.146 21.5945 142.79 20.148 141.811 18.3041C140.832 16.4602 140.338 14.3937 140.338 12.1047C140.338 9.81575 140.832 7.7493 141.811 5.90539C142.79 4.06148 144.154 2.61496 145.887 1.57379C147.628 0.532618 149.572 0.00805664 151.719 0.00805664C153.329 0.00805664 154.823 0.302129 156.187 0.890273C157.551 1.47842 158.711 2.34474 159.661 3.47334L158.203 5.07086C156.506 3.18721 154.366 2.24937 151.784 2.24937C150.065 2.24937 148.506 2.67855 147.099 3.53692C145.691 4.39529 144.589 5.57952 143.798 7.07373C143 8.56793 142.601 10.2449 142.601 12.1047C142.601 13.9645 143 15.6416 143.798 17.1358C144.596 18.63 145.699 19.8062 147.099 20.6726C148.498 21.5389 150.065 21.9601 151.784 21.9601C154.388 21.9601 156.528 21.0064 158.203 19.1068L159.661 20.7044C158.711 21.8409 157.543 22.7072 156.173 23.3033C154.794 23.9073 153.3 24.2014 151.69 24.2014C149.543 24.1935 147.599 23.6769 145.873 22.6357Z" fill="white"/>
<path d="M167.647 22.6198C165.899 21.5627 164.536 20.1242 163.549 18.2882C162.563 16.4522 162.077 14.3937 162.077 12.1047C162.077 9.81575 162.57 7.75725 163.549 5.92129C164.528 4.08532 165.899 2.63881 167.647 1.58969C169.395 0.532621 171.339 0.00805664 173.494 0.00805664C175.641 0.00805664 177.585 0.532618 179.311 1.57379C181.037 2.61496 182.394 4.06148 183.387 5.90539C184.381 7.75724 184.874 9.8237 184.874 12.1047C184.874 14.3937 184.381 16.4602 183.387 18.3041C182.394 20.148 181.037 21.5945 179.311 22.6357C177.585 23.6769 175.648 24.2014 173.494 24.2014C171.347 24.1935 169.395 23.6689 167.647 22.6198ZM178.15 20.6805C179.536 19.8301 180.624 18.6538 181.407 17.1437C182.19 15.6336 182.582 13.9566 182.582 12.0968C182.582 10.237 182.19 8.55998 181.407 7.04988C180.624 5.53979 179.536 4.3635 178.15 3.51308C176.765 2.66265 175.213 2.24141 173.501 2.24141C171.782 2.24141 170.23 2.66265 168.83 3.51308C167.437 4.3635 166.335 5.53979 165.544 7.04988C164.746 8.55998 164.347 10.237 164.347 12.0968C164.347 13.9566 164.746 15.6336 165.544 17.1437C166.342 18.6538 167.437 19.8301 168.83 20.6805C170.222 21.5309 171.782 21.9522 173.501 21.9522C175.213 21.9522 176.765 21.5309 178.15 20.6805Z" fill="white"/>
<path d="M87.1131 27.1896V50.9776H84.9081V46.9639C83.4792 49.7695 81.0493 51.1763 77.6184 51.1763C75.0362 51.1763 73.0053 50.3259 71.5401 48.625C70.0749 46.9242 69.3351 44.5001 69.3351 41.3527V27.1816H71.6344V41.2891C71.6344 43.8086 72.2002 45.7082 73.3244 47.0037C74.4487 48.2912 76.03 48.943 78.0537 48.943C80.1862 48.943 81.8399 48.2594 83.0295 46.8845C84.219 45.5174 84.8138 43.4589 84.8138 40.7169V27.1896H87.1131Z" fill="white"/>
<path d="M109.773 29.5345C111.252 31.2353 111.992 33.6594 111.992 36.8068V50.9778H109.693V36.8783C109.693 34.3668 109.127 32.4593 107.988 31.1717C106.85 29.8841 105.261 29.2324 103.208 29.2324C101.054 29.2324 99.3858 29.916 98.1817 31.2909C96.9849 32.6659 96.3829 34.7165 96.3829 37.4585V50.9858H94.0908V27.1978H96.2958V31.2115C97.6812 28.4059 100.133 26.9991 103.644 26.9991C106.247 26.9911 108.293 27.8336 109.773 29.5345Z" fill="white"/>
<path d="M123.278 29.3674V48.8079H127.681V50.9857H116.605V48.8079H121.008V29.3674H116.605V27.1897H127.681V29.3674H123.278Z" fill="white"/>
<path d="M150.544 27.1897L140.926 50.9777H138.663L129.045 27.1897H131.526L139.838 47.8542L148.216 27.1897H150.544Z" fill="white"/>
<path d="M168.902 48.2676C168.01 49.1975 166.828 49.9128 165.348 50.4294C163.868 50.9381 162.229 51.1924 160.43 51.1924C158.53 51.1924 156.912 50.9063 155.578 50.342C154.243 49.7777 153.242 48.9909 152.568 47.9974C151.893 47.0039 151.559 45.8594 151.559 44.5639C151.559 43.1333 151.944 41.9252 152.72 40.9238C153.496 39.9303 154.512 39.2388 155.774 38.8493C154.736 38.4202 153.931 37.7366 153.351 36.7908C152.771 35.853 152.481 34.7482 152.481 33.4766C152.481 32.2765 152.793 31.1796 153.424 30.1941C154.055 29.2086 155.005 28.4297 156.274 27.8495C157.543 27.2693 159.081 26.9832 160.88 26.9832C162.207 26.9832 163.491 27.1501 164.739 27.4759C165.986 27.8018 167.06 28.2707 167.952 28.8827L167.241 30.8856C165.341 29.7093 163.252 29.1211 160.974 29.1211C158.965 29.1211 157.435 29.5424 156.368 30.3769C155.302 31.2114 154.773 32.3003 154.773 33.6355C154.773 34.9708 155.201 36.004 156.057 36.7273C156.912 37.4505 158.131 37.8161 159.698 37.8161H165.094V39.9938H159.603C157.826 39.9938 156.419 40.3595 155.382 41.0986C154.345 41.8378 153.83 42.9266 153.83 44.3811C153.83 45.8117 154.396 46.9403 155.52 47.7828C156.644 48.6253 158.305 49.0385 160.496 49.0385C162.026 49.0385 163.455 48.8001 164.775 48.3232C166.095 47.8464 167.176 47.1946 168.003 46.3521L168.902 48.2676Z" fill="white"/>
<path d="M187.797 50.9855L182.836 43.3397C182.277 43.4112 181.697 43.443 181.095 43.443H175.263V50.9855H172.971V27.1975H181.095C183.866 27.1975 186.035 27.9208 187.609 29.3752C189.183 30.8297 189.966 32.8167 189.966 35.36C189.966 37.2198 189.538 38.7855 188.682 40.0651C187.826 41.3447 186.6 42.2667 185.005 42.831L190.307 50.9855H187.797ZM185.962 39.7313C187.101 38.6902 187.667 37.2277 187.667 35.3441C187.667 33.4207 187.101 31.9424 185.962 30.9092C184.823 29.8759 183.184 29.3593 181.03 29.3593H175.263V41.2891H181.03C183.184 41.2971 184.831 40.7725 185.962 39.7313Z" fill="white"/>
<path d="M196.654 50.3342C195.174 49.7699 194.035 49.0228 193.223 48.0929L194.122 46.1536C194.906 47.012 195.95 47.7114 197.256 48.2439C198.561 48.7764 199.903 49.0387 201.289 49.0387C203.233 49.0387 204.691 48.6492 205.662 47.8624C206.634 47.0835 207.12 46.0662 207.12 44.8183C207.12 43.8646 206.859 43.1095 206.33 42.5452C205.8 41.9809 205.155 41.5438 204.393 41.2338C203.624 40.9318 202.565 40.598 201.202 40.2324C199.57 39.7794 198.264 39.3422 197.292 38.921C196.32 38.4998 195.486 37.8639 194.797 36.9976C194.101 36.1393 193.76 34.9709 193.76 33.5006C193.76 32.3004 194.05 31.2036 194.63 30.2181C195.21 29.2325 196.095 28.4457 197.299 27.8576C198.496 27.2694 199.99 26.9753 201.767 26.9753C203.008 26.9753 204.226 27.1581 205.409 27.5396C206.598 27.9132 207.628 28.4298 208.491 29.0895L207.715 31.0924C206.808 30.4327 205.837 29.9399 204.799 29.614C203.762 29.2882 202.754 29.1213 201.76 29.1213C199.86 29.1213 198.424 29.5266 197.466 30.3294C196.501 31.1321 196.023 32.1733 196.023 33.437C196.023 34.3907 196.284 35.1537 196.813 35.7339C197.343 36.3141 198.003 36.7512 198.801 37.0612C199.599 37.3632 200.665 37.705 202.014 38.0626C203.602 38.4918 204.894 38.921 205.873 39.3343C206.852 39.7555 207.686 40.3914 208.368 41.2338C209.05 42.0843 209.391 43.2367 209.391 44.6832C209.391 45.8833 209.093 46.9802 208.506 47.9657C207.918 48.9512 207.012 49.7301 205.793 50.3103C204.574 50.8905 203.073 51.1767 201.296 51.1767C199.671 51.1846 198.126 50.9064 196.654 50.3342Z" fill="white"/>
<path d="M218.784 29.3674V48.8079H223.187V50.9857H212.111V48.8079H216.514V29.3674H212.111V27.1897H223.187V29.3674H218.784Z" fill="white"/>
<path d="M241.705 31.5771C239.572 30.2181 237.215 29.4392 234.632 29.2325V50.9859H232.333V29.2325C229.787 29.4153 227.423 30.1942 225.232 31.5771L224.398 29.6061C227.089 27.8655 230.106 26.9912 233.457 26.9912C236.867 26.9912 239.898 27.8655 242.546 29.6061L241.705 31.5771Z" fill="white"/>
<path d="M261.136 29.6935C262.761 31.4977 263.574 34.0966 263.574 37.4904V50.9859H261.31V43.9838H247.66V50.9859H245.426V37.4904C245.426 34.0887 246.238 31.4897 247.863 29.6935C249.487 27.8893 251.692 26.9912 254.485 26.9912C257.292 26.9912 259.512 27.8893 261.136 29.6935ZM261.31 41.8061V37.2519C261.31 34.6053 260.708 32.6024 259.512 31.2513C258.315 29.9001 256.639 29.2325 254.485 29.2325C252.331 29.2325 250.662 29.9081 249.458 31.2513C248.262 32.6024 247.66 34.5974 247.66 37.2519V41.8061H261.31Z" fill="white"/>
<path d="M285.188 50.9855L280.227 43.3397C279.669 43.4112 279.088 43.443 278.486 43.443H272.655V50.9855H270.363V27.1975H278.486C281.257 27.1975 283.426 27.9208 285 29.3752C286.574 30.8297 287.357 32.8167 287.357 35.36C287.357 37.2198 286.929 38.7855 286.073 40.0651C285.217 41.3447 283.992 42.2667 282.396 42.831L287.698 50.9855H285.188ZM283.361 39.7313C284.499 38.6902 285.065 37.2277 285.065 35.3441C285.065 33.4207 284.499 31.9424 283.361 30.9092C282.222 29.8759 280.583 29.3593 278.428 29.3593H272.662V41.2891H278.428C280.575 41.2971 282.222 40.7725 283.361 39.7313Z" fill="white"/>
<path d="M297.193 29.3674V48.8079H301.596V50.9857H290.52V48.8079H294.923V29.3674H290.52V27.1897H301.596V29.3674H297.193Z" fill="white"/>
<path d="M309.894 49.6029C308.146 48.5459 306.782 47.1073 305.795 45.2714C304.809 43.4354 304.323 41.3769 304.323 39.0879C304.323 36.7989 304.816 34.7404 305.795 32.9045C306.775 31.0685 308.146 29.622 309.894 28.5728C311.642 27.5158 313.586 26.9912 315.74 26.9912C317.887 26.9912 319.831 27.5158 321.557 28.5569C323.283 29.5981 324.64 31.0446 325.633 32.8885C326.627 34.7404 327.12 36.8069 327.12 39.0879C327.12 41.3769 326.627 43.4433 325.633 45.2872C324.64 47.1312 323.283 48.5777 321.557 49.6189C319.831 50.66 317.894 51.1846 315.74 51.1846C313.593 51.1846 311.642 50.66 309.894 49.6029ZM320.397 47.6716C321.782 46.8212 322.87 45.6449 323.653 44.1348C324.437 42.6247 324.828 40.9477 324.828 39.0879C324.828 37.2281 324.437 35.5511 323.653 34.041C322.87 32.5309 321.782 31.3546 320.397 30.5042C319.011 29.6538 317.459 29.2325 315.747 29.2325C314.028 29.2325 312.476 29.6538 311.076 30.5042C309.683 31.3546 308.581 32.5309 307.79 34.041C306.992 35.5511 306.593 37.2281 306.593 39.0879C306.593 40.9477 306.992 42.6247 307.79 44.1348C308.588 45.6449 309.683 46.8212 311.076 47.6716C312.469 48.522 314.028 48.9433 315.747 48.9433C317.459 48.9433 319.011 48.522 320.397 47.6716Z" fill="white"/>
</svg>
