<svg width="243" height="39" viewBox="0 0 243 39" fill="none" xmlns="http://www.w3.org/2000/svg">
<path d="M0 31.0485V9.98798C0.221099 4.87252 4.19009 0.332031 8.38558 0.332031H26.7476C33.5369 0.332031 41.119 8.89139 41.119 14.155C41.119 14.155 42.1167 19.0867 38.2339 22.252C34.8258 25.0321 12.1766 36.9701 12.1766 36.9701C7.58747 39.3886 0 36.5374 0 31.0485Z" fill="#49BEB6"/>
<path d="M47.1104 0H45.1151V38.1792H47.1104V0Z" fill="#056061"/>
<path d="M63.6118 10.2487C64.1888 11.0015 64.4746 11.9677 64.4746 13.1532C64.4746 14.6766 63.9623 15.8443 62.9431 16.6623C61.9185 17.4803 60.4085 17.8893 58.4132 17.8893H50.9875V0.148193H57.9495C59.7506 0.148193 61.1419 0.545335 62.1342 1.33962C63.1264 2.13391 63.6225 3.26015 63.6225 4.71239C63.6225 5.69044 63.4014 6.52622 62.9646 7.20789C62.5278 7.88955 61.9239 8.40525 61.1527 8.74312C62.2205 8.998 63.0347 9.50184 63.6118 10.2487ZM52.697 1.69528V8.13258H57.8416C59.1466 8.13258 60.1551 7.85992 60.8615 7.30865C61.5679 6.75739 61.9239 5.9631 61.9239 4.91393C61.9239 3.86475 61.5679 3.07047 60.8615 2.51921C60.1551 1.96795 59.1466 1.69528 57.8416 1.69528H52.697ZM61.665 15.5361C62.4038 14.9967 62.7705 14.149 62.7705 12.9991C62.7705 10.7822 61.3091 9.67967 58.3917 9.67967H52.697V16.3481H58.3917C59.8369 16.3481 60.9262 16.0755 61.665 15.5361Z" fill="#056061"/>
<path d="M79.8493 2.01536C81.0573 3.36091 81.6613 5.29921 81.6613 7.83027V17.8952H79.9787V12.6731H69.8298V17.8952H68.1688V7.83027C68.1688 5.29328 68.7728 3.35498 69.9808 2.01536C71.1887 0.669808 72.8281 0 74.9043 0C76.9912 0 78.6414 0.669808 79.8493 2.01536ZM79.9787 11.0489V7.65245C79.9787 5.67858 79.5312 4.18484 78.6414 3.17716C77.7516 2.16948 76.5059 1.67156 74.9043 1.67156C73.3026 1.67156 72.0623 2.17541 71.1671 3.17716C70.2774 4.18484 69.8298 5.67265 69.8298 7.65245V11.0489H79.9787Z" fill="#056061"/>
<path d="M98.3678 1.89681C99.4679 3.1653 100.018 4.9732 100.018 7.3205V17.8893H98.3085V7.36792C98.3085 5.49482 97.8878 4.07222 97.0412 3.11196C96.1945 2.15169 95.0135 1.66564 93.4874 1.66564C91.8858 1.66564 90.6455 2.1754 89.7503 3.20086C88.8605 4.22633 88.4129 5.75564 88.4129 7.80064V17.8893H86.7089V0.148188H88.3482V3.14159C89.3782 1.04918 91.2009 0 93.811 0C95.747 0 97.2677 0.634244 98.3678 1.89681Z" fill="#056061"/>
<path d="M107.751 16.8815C106.468 16.105 105.459 15.0262 104.731 13.651C104.003 12.2759 103.636 10.7347 103.636 9.02757C103.636 7.32044 104.003 5.77928 104.731 4.40409C105.459 3.0289 106.473 1.95009 107.762 1.17358C109.056 0.397077 110.501 0.00585938 112.098 0.00585938C113.295 0.00585938 114.406 0.225178 115.419 0.663816C116.433 1.10245 117.296 1.74855 118.003 2.59026L116.919 3.7817C115.657 2.37687 114.066 1.67743 112.146 1.67743C110.868 1.67743 109.709 1.99751 108.662 2.63769C107.616 3.27786 106.797 4.16106 106.209 5.27544C105.616 6.38981 105.319 7.64052 105.319 9.02757C105.319 10.4146 105.616 11.6653 106.209 12.7797C106.802 13.8941 107.622 14.7713 108.662 15.4174C109.703 16.0635 110.868 16.3777 112.146 16.3777C114.082 16.3777 115.673 15.6664 116.919 14.2497L118.003 15.4412C117.296 16.2888 116.428 16.9349 115.409 17.3795C114.384 17.83 113.273 18.0493 112.076 18.0493C110.48 18.0433 109.035 17.6581 107.751 16.8815Z" fill="#056061"/>
<path d="M123.94 16.8697C122.64 16.0813 121.626 15.0084 120.893 13.6392C120.16 12.2699 119.798 10.7347 119.798 9.02757C119.798 7.32044 120.165 5.78521 120.893 4.41595C121.621 3.04669 122.64 1.96788 123.94 1.18544C125.24 0.39708 126.685 0.00585938 128.286 0.00585938C129.883 0.00585938 131.328 0.397077 132.611 1.17358C133.895 1.95009 134.903 3.0289 135.642 4.40409C136.381 5.7852 136.747 7.32636 136.747 9.02757C136.747 10.7347 136.381 12.2759 135.642 13.651C134.903 15.0262 133.895 16.105 132.611 16.8815C131.328 17.6581 129.888 18.0493 128.286 18.0493C126.69 18.0433 125.24 17.6521 123.94 16.8697ZM131.748 15.4234C132.778 14.7891 133.587 13.9119 134.17 12.7856C134.752 11.6594 135.043 10.4087 135.043 9.02164C135.043 7.6346 134.752 6.38389 134.17 5.25765C133.587 4.13142 132.778 3.25415 131.748 2.6199C130.718 1.98566 129.564 1.67149 128.292 1.67149C127.014 1.67149 125.86 1.98566 124.819 2.6199C123.784 3.25415 122.964 4.13142 122.376 5.25765C121.783 6.38389 121.486 7.6346 121.486 9.02164C121.486 10.4087 121.783 11.6594 122.376 12.7856C122.969 13.9119 123.784 14.7891 124.819 15.4234C125.854 16.0576 127.014 16.3718 128.292 16.3718C129.564 16.3718 130.718 16.0576 131.748 15.4234Z" fill="#056061"/>
<path d="M64.0651 20.2781V38.0193H62.4257V35.0259C61.3633 37.1183 59.5568 38.1674 57.0061 38.1674C55.0863 38.1674 53.5763 37.5332 52.487 36.2647C51.3977 34.9962 50.8477 33.1883 50.8477 30.841V20.2722H52.5571V30.7936C52.5571 32.6726 52.9778 34.0893 53.8136 35.0555C54.6495 36.0157 55.8251 36.5018 57.3296 36.5018C58.9151 36.5018 60.1446 35.992 61.029 34.9666C61.9134 33.947 62.3556 32.4118 62.3556 30.3668V20.2781H64.0651Z" fill="#056061"/>
<path d="M80.9117 22.0267C82.0118 23.2952 82.5619 25.103 82.5619 27.4503V38.0192H80.8524V27.5037C80.8524 25.6306 80.4318 24.208 79.5851 23.2477C78.7385 22.2875 77.5575 21.8014 76.0314 21.8014C74.4298 21.8014 73.1894 22.3112 72.2943 23.3367C71.4045 24.3621 70.9569 25.8914 70.9569 27.9364V38.0251H69.2528V20.284H70.8922V23.2774C71.9222 21.185 73.7449 20.1358 76.3549 20.1358C78.2909 20.1299 79.8116 20.7582 80.9117 22.0267Z" fill="#056061"/>
<path d="M90.9528 21.9022V36.401H94.2262V38.0251H85.9916V36.401H89.2649V21.9022H85.9916V20.2781H94.2262V21.9022H90.9528Z" fill="#056061"/>
<path d="M111.224 20.2781L104.073 38.0192H102.391L95.24 20.2781H97.0843L103.264 35.6897L109.493 20.2781H111.224Z" fill="#056061"/>
<path d="M124.873 35.998C124.209 36.6915 123.33 37.225 122.23 37.6102C121.13 37.9896 119.911 38.1793 118.574 38.1793C117.161 38.1793 115.959 37.9659 114.966 37.5451C113.974 37.1242 113.23 36.5374 112.728 35.7964C112.227 35.0555 111.979 34.2019 111.979 33.2357C111.979 32.1688 112.265 31.2678 112.842 30.5209C113.419 29.78 114.174 29.2643 115.112 28.9738C114.341 28.6537 113.742 28.144 113.311 27.4386C112.879 26.7391 112.664 25.9152 112.664 24.9668C112.664 24.0718 112.896 23.2538 113.365 22.5187C113.834 21.7837 114.54 21.2028 115.484 20.7701C116.428 20.3374 117.571 20.124 118.908 20.124C119.895 20.124 120.85 20.2485 121.777 20.4915C122.705 20.7346 123.503 21.0843 124.166 21.5407L123.638 23.0344C122.225 22.1572 120.672 21.7185 118.978 21.7185C117.485 21.7185 116.347 22.0327 115.554 22.6551C114.761 23.2775 114.368 24.0895 114.368 25.0854C114.368 26.0812 114.686 26.8518 115.322 27.3912C115.959 27.9306 116.865 28.2033 118.029 28.2033H122.041V29.8274H117.959C116.638 29.8274 115.592 30.1001 114.821 30.6513C114.05 31.2026 113.667 32.0147 113.667 33.0994C113.667 34.1664 114.087 35.0081 114.923 35.6364C115.759 36.2647 116.994 36.5729 118.623 36.5729C119.76 36.5729 120.823 36.3951 121.804 36.0395C122.786 35.6838 123.589 35.1977 124.204 34.5694L124.873 35.998Z" fill="#056061"/>
<path d="M138.921 38.025L135.232 32.3227C134.817 32.3761 134.386 32.3998 133.938 32.3998H129.602V38.025H127.898V20.2839H133.938C135.998 20.2839 137.61 20.8233 138.781 21.9081C139.951 22.9928 140.533 24.4747 140.533 26.3715C140.533 27.7586 140.215 28.9263 139.579 29.8806C138.942 30.8349 138.031 31.5225 136.845 31.9434L140.787 38.025H138.921ZM137.556 29.6317C138.403 28.8552 138.824 27.7645 138.824 26.3596C138.824 24.9252 138.403 23.8227 137.556 23.0521C136.71 22.2815 135.491 21.8962 133.889 21.8962H129.602V30.7934H133.889C135.491 30.7994 136.715 30.4082 137.556 29.6317Z" fill="#056061"/>
<path d="M145.505 37.5389C144.405 37.1181 143.558 36.5609 142.954 35.8674L143.623 34.4211C144.206 35.0612 144.982 35.5829 145.953 35.98C146.923 36.3771 147.921 36.5727 148.951 36.5727C150.396 36.5727 151.48 36.2823 152.203 35.6955C152.926 35.1146 153.287 34.3559 153.287 33.4252C153.287 32.7139 153.093 32.1508 152.699 31.7299C152.305 31.3091 151.825 30.9831 151.259 30.7519C150.688 30.5267 149.9 30.2777 148.886 30.0051C147.673 29.6672 146.702 29.3412 145.98 29.027C145.257 28.7128 144.637 28.2386 144.125 27.5925C143.607 26.9524 143.354 26.081 143.354 24.9844C143.354 24.0894 143.569 23.2714 144.001 22.5364C144.432 21.8013 145.09 21.2145 145.985 20.7759C146.875 20.3372 147.986 20.1179 149.307 20.1179C150.229 20.1179 151.135 20.2542 152.014 20.5388C152.899 20.8174 153.664 21.2027 154.306 21.6946L153.729 23.1884C153.055 22.6964 152.332 22.3289 151.561 22.0859C150.79 21.8428 150.04 21.7184 149.302 21.7184C147.889 21.7184 146.821 22.0207 146.109 22.6193C145.392 23.218 145.036 23.9945 145.036 24.937C145.036 25.6483 145.23 26.2174 145.624 26.6501C146.018 27.0828 146.508 27.4088 147.101 27.64C147.695 27.8652 148.487 28.1201 149.49 28.3868C150.671 28.7069 151.631 29.027 152.359 29.3352C153.087 29.6494 153.707 30.1236 154.214 30.7519C154.721 31.3862 154.975 32.2456 154.975 33.3245C154.975 34.2195 154.754 35.0375 154.317 35.7725C153.88 36.5075 153.206 37.0884 152.3 37.5212C151.394 37.9539 150.278 38.1673 148.956 38.1673C147.749 38.1732 146.6 37.9657 145.505 37.5389Z" fill="#056061"/>
<path d="M161.958 21.9022V36.401H165.231V38.0251H156.996V36.401H160.27V21.9022H156.996V20.2781H165.231V21.9022H161.958Z" fill="#056061"/>
<path d="M178.999 23.5501C177.413 22.5365 175.661 21.9556 173.741 21.8015V38.0251H172.031V21.8015C170.139 21.9378 168.381 22.5187 166.752 23.5501L166.132 22.08C168.133 20.7819 170.376 20.1299 172.867 20.1299C175.402 20.1299 177.656 20.7819 179.624 22.08L178.999 23.5501Z" fill="#056061"/>
<path d="M193.446 22.1452C194.654 23.4908 195.258 25.4291 195.258 27.9602V38.0251H193.575V32.803H183.426V38.0251H181.765V27.9602C181.765 25.4232 182.369 23.4849 183.577 22.1452C184.785 20.7997 186.424 20.1299 188.501 20.1299C190.588 20.1299 192.238 20.7997 193.446 22.1452ZM193.575 31.1788V27.7823C193.575 25.8085 193.127 24.3147 192.238 23.307C191.348 22.2994 190.102 21.8015 188.501 21.8015C186.899 21.8015 185.659 22.3053 184.763 23.307C183.874 24.3147 183.426 25.8025 183.426 27.7823V31.1788H193.575Z" fill="#056061"/>
<path d="M211.328 38.025L207.639 32.3227C207.224 32.3761 206.793 32.3998 206.345 32.3998H202.009V38.025H200.305V20.2839H206.345C208.405 20.2839 210.017 20.8233 211.188 21.9081C212.358 22.9928 212.94 24.4747 212.94 26.3715C212.94 27.7586 212.622 28.9263 211.986 29.8806C211.349 30.8349 210.438 31.5225 209.252 31.9434L213.194 38.025H211.328ZM209.969 29.6317C210.815 28.8552 211.236 27.7645 211.236 26.3596C211.236 24.9252 210.815 23.8227 209.969 23.0521C209.122 22.2815 207.903 21.8962 206.302 21.8962H202.015V30.7934H206.302C207.898 30.7994 209.122 30.4082 209.969 29.6317Z" fill="#056061"/>
<path d="M220.253 21.9022V36.401H223.526V38.0251H215.292V36.401H218.565V21.9022H215.292V20.2781H223.526V21.9022H220.253Z" fill="#056061"/>
<path d="M229.695 36.9937C228.395 36.2054 227.382 35.1325 226.648 33.7632C225.915 32.394 225.553 30.8587 225.553 29.1516C225.553 27.4445 225.92 25.9092 226.648 24.54C227.376 23.1707 228.395 22.0919 229.695 21.3095C230.995 20.5211 232.44 20.1299 234.042 20.1299C235.638 20.1299 237.083 20.5211 238.366 21.2976C239.65 22.0741 240.658 23.1529 241.397 24.5281C242.136 25.9092 242.503 27.4504 242.503 29.1516C242.503 30.8587 242.136 32.3999 241.397 33.7751C240.658 35.1503 239.65 36.2291 238.366 37.0056C237.083 37.7821 235.643 38.1733 234.042 38.1733C232.445 38.1733 230.995 37.7821 229.695 36.9937ZM237.504 35.5533C238.534 34.9191 239.342 34.0418 239.925 32.9156C240.507 31.7893 240.799 30.5386 240.799 29.1516C240.799 27.7646 240.507 26.5138 239.925 25.3876C239.342 24.2614 238.534 23.3841 237.504 22.7499C236.474 22.1156 235.32 21.8015 234.047 21.8015C232.769 21.8015 231.615 22.1156 230.574 22.7499C229.539 23.3841 228.719 24.2614 228.131 25.3876C227.538 26.5138 227.241 27.7646 227.241 29.1516C227.241 30.5386 227.538 31.7893 228.131 32.9156C228.724 34.0418 229.539 34.9191 230.574 35.5533C231.609 36.1876 232.769 36.5017 234.047 36.5017C235.32 36.5017 236.474 36.1876 237.504 35.5533Z" fill="#056061"/>
</svg>
