<svg width="336" height="49" viewBox="0 0 336 49" fill="none" xmlns="http://www.w3.org/2000/svg">
<path d="M0.243042 39.168V12.6544C0.549034 6.21443 6.04196 0.498291 11.8483 0.498291H37.2606C46.6568 0.498291 57.1501 11.2739 57.1501 17.9004C57.1501 17.9004 58.5308 24.1091 53.1573 28.094C48.4405 31.5938 17.095 46.6229 17.095 46.6229C10.7438 49.6676 0.243042 46.0782 0.243042 39.168Z" fill="white"/>
<path d="M65.4417 0.0805664H62.6803V48.1454H65.4417V0.0805664Z" fill="white"/>
<path d="M88.2791 12.9829C89.0777 13.9306 89.4733 15.147 89.4733 16.6394C89.4733 18.5572 88.7642 20.0273 87.3537 21.0571C85.9357 22.0869 83.846 22.6018 81.0846 22.6018H70.8077V0.26709H80.4428C82.9355 0.26709 84.861 0.767061 86.2342 1.76701C87.6074 2.76696 88.2941 4.18481 88.2941 6.01308C88.2941 7.24436 87.9881 8.29655 87.3836 9.15472C86.779 10.0129 85.9431 10.6621 84.8759 11.0875C86.3536 11.4083 87.4806 12.0426 88.2791 12.9829ZM73.1736 2.21476V10.3188H80.2935C82.0996 10.3188 83.4952 9.97557 84.4729 9.28158C85.4506 8.58758 85.9431 7.58762 85.9431 6.26679C85.9431 4.94596 85.4506 3.94602 84.4729 3.25202C83.4952 2.55802 82.0996 2.21476 80.2935 2.21476H73.1736ZM85.5849 19.6393C86.6074 18.9602 87.1149 17.8931 87.1149 16.4454C87.1149 13.6545 85.0923 12.2665 81.0547 12.2665H73.1736V20.6616H81.0547C83.0549 20.6616 84.5625 20.3183 85.5849 19.6393Z" fill="white"/>
<path d="M110.751 2.61775C112.423 4.3117 113.259 6.75188 113.259 9.93829V22.6093H110.93V16.035H96.8842V22.6093H94.5856V9.93829C94.5856 6.74442 95.4215 4.30424 97.0932 2.61775C98.765 0.923804 101.034 0.0805664 103.907 0.0805664C106.795 0.0805664 109.079 0.923804 110.751 2.61775ZM110.93 13.9903V9.71443C110.93 7.22948 110.311 5.34897 109.079 4.08037C107.848 2.81178 106.124 2.18494 103.907 2.18494C101.691 2.18494 99.974 2.81924 98.7351 4.08037C97.5037 5.34897 96.8842 7.22201 96.8842 9.71443V13.9903H110.93Z" fill="white"/>
<path d="M136.38 2.46851C137.902 4.06545 138.663 6.34145 138.663 9.29653V22.6019H136.298V9.35623C136.298 6.99814 135.715 5.20718 134.544 3.99829C133.372 2.78939 131.737 2.17748 129.625 2.17748C127.409 2.17748 125.692 2.81923 124.453 4.11022C123.222 5.4012 122.603 7.32649 122.603 9.90099V22.6019H120.244V0.267125H122.513V4.0356C123.938 1.4014 126.461 0.0805664 130.073 0.0805664C132.752 0.0805664 134.857 0.879033 136.38 2.46851Z" fill="white"/>
<path d="M149.366 21.3334C147.589 20.3558 146.194 18.9977 145.186 17.2664C144.179 15.5351 143.671 13.5949 143.671 11.4458C143.671 9.29664 144.179 7.35644 145.186 5.62518C146.194 3.89392 147.597 2.53578 149.381 1.55821C151.172 0.580649 153.172 0.0881348 155.381 0.0881348C157.038 0.0881348 158.575 0.364241 159.978 0.916453C161.381 1.46867 162.575 2.28206 163.553 3.34171L162.053 4.84163C160.307 3.07306 158.105 2.19252 155.448 2.19252C153.679 2.19252 152.075 2.59548 150.627 3.40141C149.179 4.20734 148.045 5.31922 147.231 6.72214C146.41 8.12506 146 9.69961 146 11.4458C146 13.192 146.41 14.7665 147.231 16.1694C148.052 17.5724 149.186 18.6768 150.627 19.4902C152.067 20.3036 153.679 20.6991 155.448 20.6991C158.127 20.6991 160.329 19.8036 162.053 18.0201L163.553 19.52C162.575 20.5871 161.374 21.4005 159.963 21.9602C158.545 22.5273 157.008 22.8035 155.351 22.8035C153.142 22.796 151.142 22.3109 149.366 21.3334Z" fill="white"/>
<path d="M171.77 21.3184C169.971 20.326 168.568 18.9753 167.553 17.2515C166.538 15.5277 166.038 13.5949 166.038 11.4458C166.038 9.29664 166.546 7.3639 167.553 5.64011C168.561 3.91631 169.971 2.55817 171.77 1.57314C173.569 0.580652 175.569 0.0881348 177.785 0.0881348C179.995 0.0881348 181.995 0.580649 183.771 1.55821C185.547 2.53578 186.943 3.89392 187.965 5.62518C188.988 7.3639 189.495 9.30411 189.495 11.4458C189.495 13.5949 188.988 15.5351 187.965 17.2664C186.943 18.9977 185.547 20.3558 183.771 21.3334C181.995 22.3109 180.002 22.8035 177.785 22.8035C175.576 22.796 173.569 22.3035 171.77 21.3184ZM182.577 19.4976C184.002 18.6992 185.122 17.5947 185.928 16.1769C186.734 14.7591 187.137 13.1845 187.137 11.4383C187.137 9.69215 186.734 8.1176 185.928 6.69975C185.122 5.28191 184.002 4.17749 182.577 3.37902C181.151 2.58055 179.554 2.18505 177.793 2.18505C176.024 2.18505 174.427 2.58055 172.987 3.37902C171.554 4.17749 170.419 5.28191 169.606 6.69975C168.785 8.1176 168.374 9.69215 168.374 11.4383C168.374 13.1845 168.785 14.7591 169.606 16.1769C170.427 17.5947 171.554 18.6992 172.987 19.4976C174.42 20.2961 176.024 20.6916 177.793 20.6916C179.554 20.6916 181.151 20.2961 182.577 19.4976Z" fill="white"/>
<path d="M88.9061 25.609V47.9438H86.6373V44.1753C85.167 46.8095 82.6669 48.1303 79.1368 48.1303C76.4799 48.1303 74.3902 47.3319 72.8826 45.7349C71.375 44.138 70.6138 41.862 70.6138 38.9069V25.6016H72.9796V38.8472C72.9796 41.2127 73.5617 42.9962 74.7185 44.2126C75.8753 45.4215 77.5023 46.0334 79.5846 46.0334C81.7787 46.0334 83.4804 45.3917 84.7043 44.1007C85.9283 42.8172 86.5403 40.8844 86.5403 38.3099V25.609H88.9061Z" fill="white"/>
<path d="M112.221 27.8107C113.744 29.4076 114.505 31.6836 114.505 34.6387V47.9441H112.139V34.7059C112.139 32.3478 111.557 30.5568 110.385 29.3479C109.213 28.139 107.579 27.5271 105.467 27.5271C103.25 27.5271 101.534 28.1689 100.295 29.4599C99.0635 30.7509 98.4441 32.6761 98.4441 35.2506V47.9515H96.0857V25.6168H98.3545V29.3853C99.78 26.7511 102.303 25.4302 105.915 25.4302C108.594 25.4228 110.699 26.2138 112.221 27.8107Z" fill="white"/>
<path d="M126.118 27.6538V45.9066H130.648V47.9513H119.252V45.9066H123.782V27.6538H119.252V25.6091H130.648V27.6538H126.118Z" fill="white"/>
<path d="M154.172 25.6091L144.276 47.9439H141.947L132.051 25.6091H134.603L143.156 45.0112L151.776 25.6091H154.172Z" fill="white"/>
<path d="M173.061 45.3994C172.143 46.2725 170.927 46.9441 169.404 47.4291C167.882 47.9067 166.195 48.1455 164.344 48.1455C162.389 48.1455 160.725 47.8769 159.351 47.3471C157.978 46.8172 156.948 46.0785 156.254 45.1457C155.56 44.2129 155.217 43.1383 155.217 41.9219C155.217 40.5787 155.612 39.4445 156.411 38.5042C157.209 37.5714 158.254 36.9222 159.553 36.5565C158.486 36.1536 157.657 35.5118 157.06 34.6238C156.463 33.7432 156.165 32.706 156.165 31.512C156.165 30.3852 156.486 29.3554 157.135 28.4301C157.784 27.5047 158.762 26.7734 160.068 26.2287C161.374 25.6839 162.956 25.4153 164.807 25.4153C166.173 25.4153 167.494 25.572 168.777 25.8779C170.061 26.1839 171.166 26.6242 172.084 27.1988L171.352 29.0793C169.397 27.9749 167.248 27.4227 164.904 27.4227C162.837 27.4227 161.262 27.8181 160.165 28.6017C159.068 29.3852 158.523 30.4076 158.523 31.6612C158.523 32.9149 158.963 33.885 159.844 34.5641C160.725 35.2432 161.978 35.5864 163.591 35.5864H169.143V37.6311H163.494C161.665 37.6311 160.217 37.9744 159.15 38.6684C158.083 39.3624 157.553 40.3847 157.553 41.7503C157.553 43.0935 158.135 44.1532 159.292 44.9442C160.449 45.7352 162.158 46.1232 164.411 46.1232C165.986 46.1232 167.456 45.8994 168.815 45.4516C170.173 45.0039 171.285 44.392 172.136 43.601L173.061 45.3994Z" fill="white"/>
<path d="M192.503 47.9512L187.398 40.7724C186.823 40.8396 186.226 40.8694 185.607 40.8694H179.606V47.9512H177.248V25.6165H185.607C188.458 25.6165 190.689 26.2955 192.309 27.6611C193.928 29.0267 194.734 30.8923 194.734 33.2803C194.734 35.0264 194.294 36.4965 193.413 37.6979C192.533 38.8994 191.271 39.765 189.63 40.2948L195.085 47.9512H192.503ZM190.615 37.3845C191.786 36.407 192.369 35.0339 192.369 33.2653C192.369 31.4594 191.786 30.0715 190.615 29.1014C189.443 28.1313 187.756 27.6462 185.54 27.6462H179.606V38.8472H185.54C187.756 38.8546 189.45 38.3621 190.615 37.3845Z" fill="white"/>
<path d="M201.616 47.3397C200.093 46.8099 198.921 46.1084 198.086 45.2353L199.011 43.4145C199.817 44.2205 200.892 44.8772 202.235 45.3771C203.578 45.8771 204.959 46.1234 206.385 46.1234C208.385 46.1234 209.885 45.7577 210.885 45.0189C211.885 44.2876 212.385 43.3325 212.385 42.1609C212.385 41.2654 212.116 40.5565 211.572 40.0266C211.027 39.4968 210.363 39.0864 209.579 38.7954C208.788 38.5118 207.698 38.1984 206.295 37.8551C204.616 37.4298 203.273 37.0193 202.272 36.6238C201.272 36.2283 200.414 35.6313 199.705 34.8179C198.989 34.012 198.638 32.9151 198.638 31.5345C198.638 30.4077 198.936 29.3779 199.533 28.4526C200.13 27.5273 201.041 26.7885 202.28 26.2363C203.511 25.6841 205.049 25.408 206.877 25.408C208.153 25.408 209.407 25.5796 210.624 25.9378C211.848 26.2885 212.908 26.7736 213.796 27.3929L212.997 29.2734C212.064 28.6541 211.064 28.1914 209.997 27.8854C208.93 27.5795 207.892 27.4228 206.87 27.4228C204.914 27.4228 203.437 27.8034 202.452 28.5571C201.459 29.3108 200.966 30.2883 200.966 31.4748C200.966 32.3703 201.235 33.0867 201.78 33.6314C202.325 34.1762 203.004 34.5866 203.825 34.8776C204.646 35.1612 205.743 35.4821 207.131 35.8179C208.765 36.2209 210.094 36.6238 211.101 37.0119C212.109 37.4074 212.967 38.0044 213.669 38.7954C214.37 39.5938 214.721 40.6759 214.721 42.034C214.721 43.1608 214.415 44.1906 213.811 45.1159C213.206 46.0413 212.273 46.7726 211.019 47.3173C209.766 47.8621 208.221 48.1307 206.392 48.1307C204.72 48.1382 203.131 47.877 201.616 47.3397Z" fill="white"/>
<path d="M224.386 27.6538V45.9066H228.916V47.9513H217.52V45.9066H222.05V27.6538H217.52V25.6091H228.916V27.6538H224.386Z" fill="white"/>
<path d="M247.97 29.7286C245.776 28.4526 243.35 27.7213 240.693 27.5272V47.9516H238.327V27.5272C235.708 27.6989 233.275 28.4302 231.021 29.7286L230.162 27.878C232.931 26.2437 236.036 25.4229 239.484 25.4229C242.992 25.4229 246.111 26.2437 248.835 27.878L247.97 29.7286Z" fill="white"/>
<path d="M267.964 27.96C269.635 29.654 270.471 32.0942 270.471 35.2806V47.9516H268.143V41.3773H254.097V47.9516H251.798V35.2806C251.798 32.0867 252.634 29.6465 254.306 27.96C255.978 26.2661 258.246 25.4229 261.12 25.4229C264.008 25.4229 266.292 26.2661 267.964 27.96ZM268.143 39.3326V35.0567C268.143 32.5718 267.523 30.6913 266.292 29.4227C265.06 28.1541 263.336 27.5272 261.12 27.5272C258.903 27.5272 257.187 28.1615 255.948 29.4227C254.716 30.6913 254.097 32.5643 254.097 35.0567V39.3326H268.143Z" fill="white"/>
<path d="M292.712 47.9512L287.607 40.7724C287.032 40.8396 286.435 40.8694 285.816 40.8694H279.815V47.9512H277.457V25.6165H285.816C288.667 25.6165 290.898 26.2955 292.518 27.6611C294.137 29.0267 294.943 30.8923 294.943 33.2803C294.943 35.0264 294.503 36.4965 293.622 37.6979C292.741 38.8994 291.48 39.765 289.838 40.2948L295.294 47.9512H292.712ZM290.831 37.3845C292.003 36.407 292.585 35.0339 292.585 33.2653C292.585 31.4594 292.003 30.0715 290.831 29.1014C289.659 28.1313 287.972 27.6462 285.756 27.6462H279.823V38.8472H285.756C287.965 38.8546 289.659 38.3621 290.831 37.3845Z" fill="white"/>
<path d="M305.063 27.6538V45.9066H309.593V47.9513H298.197V45.9066H302.727V27.6538H298.197V25.6091H309.593V27.6538H305.063Z" fill="white"/>
<path d="M318.131 46.6532C316.333 45.6607 314.93 44.31 313.915 42.5862C312.9 40.8624 312.4 38.9297 312.4 36.7805C312.4 34.6314 312.907 32.6986 313.915 30.9748C314.922 29.251 316.333 27.8929 318.131 26.9079C319.93 25.9154 321.93 25.4229 324.147 25.4229C326.356 25.4229 328.356 25.9154 330.132 26.8929C331.908 27.8705 333.304 29.2286 334.326 30.9599C335.349 32.6986 335.856 34.6388 335.856 36.7805C335.856 38.9297 335.349 40.8699 334.326 42.6011C333.304 44.3324 331.908 45.6905 330.132 46.6681C328.356 47.6457 326.363 48.1382 324.147 48.1382C321.938 48.1382 319.93 47.6456 318.131 46.6532ZM328.938 44.8398C330.364 44.0414 331.483 42.9369 332.289 41.5191C333.095 40.1012 333.498 38.5267 333.498 36.7805C333.498 35.0343 333.095 33.4598 332.289 32.0419C331.483 30.6241 330.364 29.5197 328.938 28.7212C327.513 27.9227 325.915 27.5272 324.154 27.5272C322.385 27.5272 320.788 27.9227 319.348 28.7212C317.915 29.5197 316.78 30.6241 315.967 32.0419C315.146 33.4598 314.736 35.0343 314.736 36.7805C314.736 38.5267 315.146 40.1012 315.967 41.5191C316.788 42.9369 317.915 44.0414 319.348 44.8398C320.781 45.6383 322.385 46.0338 324.154 46.0338C325.915 46.0338 327.513 45.6383 328.938 44.8398Z" fill="white"/>
</svg>
