<svg width="116" height="112" viewBox="0 0 116 112" fill="none" xmlns="http://www.w3.org/2000/svg">
<path d="M92.5174 35.7426C92.5174 54.3781 77.0166 69.4852 57.8953 69.4852M92.5174 35.7426C92.5174 17.1071 77.0166 2 57.8953 2C38.7741 2 23.2732 17.1071 23.2732 35.7426M92.5174 35.7426C92.5174 43.6159 96.672 61.387 113.291 69.4852M57.8953 69.4852C38.7741 69.4852 23.2732 54.3781 23.2732 35.7426M57.8953 69.4852C31.1256 69.4852 9.42441 87.6137 9.42441 109.976M57.8953 69.4852C84.665 69.4852 106.366 87.6137 106.366 109.976M23.2732 35.7426C23.2732 43.6159 19.1186 61.387 2.5 69.4852M71.7441 8.74852C71.7441 17.7465 63.4348 35.7426 30.1977 35.7426" stroke="white" stroke-width="4" stroke-linecap="round"/>
</svg>
