<svg width="115" height="118" viewBox="0 0 115 118" fill="none" xmlns="http://www.w3.org/2000/svg">
<path d="M92.0174 37.5702C92.0174 57.1465 76.5166 73.0162 57.3953 73.0162M92.0174 37.5702C92.0174 17.994 76.5166 2.12427 57.3953 2.12427C38.2741 2.12427 22.7732 17.994 22.7732 37.5702M92.0174 37.5702C92.0174 45.8409 96.172 64.5091 112.791 73.0162M57.3953 73.0162C38.2741 73.0162 22.7732 57.1465 22.7732 37.5702M57.3953 73.0162C30.6256 73.0162 8.92441 92.0598 8.92441 115.551M57.3953 73.0162C84.165 73.0162 105.866 92.0598 105.866 115.551M22.7732 37.5702C22.7732 45.8409 18.6186 64.5091 2 73.0162M71.2441 9.21346C71.2441 18.6657 62.9348 37.5702 29.6977 37.5702" stroke="white" stroke-width="4" stroke-linecap="round"/>
</svg>
