<?xml version="1.0" encoding="utf-8"?>
<!-- Generator: Adobe Illustrator 25.2.3, SVG Export Plug-In . SVG Version: 6.00 Build 0)  -->
<svg version="1.1" id="Capa_1" xmlns="http://www.w3.org/2000/svg" xmlns:xlink="http://www.w3.org/1999/xlink" x="0px" y="0px"
	 viewBox="0 0 26 25" style="enable-background:new 0 0 26 25;" xml:space="preserve">
<style type="text/css">
	.st0{fill:#FFFFFF;}
</style>
<path class="st0" d="M19.9,4.6h-4v-1c0-1.6-1.3-3-3-3s-3,1.3-3,3v1h-4c-2.7,0-4.9,2.2-4.9,4.9v9.9c0,2.7,2.2,4.9,4.9,4.9h13.8
	c2.7,0,4.9-2.2,4.9-4.9V9.5C24.9,6.8,22.6,4.6,19.9,4.6z M12,3.6c0-0.5,0.4-1,1-1s1,0.4,1,1v2c0,0.5-0.4,1-1,1s-1-0.4-1-1V3.6z
	 M22.9,19.4c0,1.6-1.3,3-3,3H6.1c-1.6,0-3-1.3-3-3V9.5c0-1.6,1.3-3,3-3h4.1c0.5,1.5,2.2,2.3,3.8,1.8c0.8-0.3,1.5-1,1.8-1.8h4.1
	c1.6,0,3,1.3,3,3V19.4z M11,10.5H6.1c-0.5,0-1,0.4-1,1v7.9c0,0.5,0.4,1,1,1H11c0.5,0,1-0.4,1-1v-7.9C12,11,11.6,10.5,11,10.5z
	 M10,18.4h-3v-5.9h3V18.4z M20.9,15.5c0,0.5-0.4,1-1,1H15c-0.5,0-1-0.4-1-1s0.4-1,1-1h4.9C20.5,14.5,20.9,14.9,20.9,15.5z
	 M20.9,11.5c0,0.5-0.4,1-1,1H15c-0.5,0-1-0.4-1-1c0-0.5,0.4-1,1-1h4.9C20.5,10.5,20.9,11,20.9,11.5z M18.9,19.4c0,0.5-0.4,1-1,1h-3
	c-0.5,0-1-0.4-1-1c0-0.5,0.4-1,1-1h3C18.5,18.4,18.9,18.9,18.9,19.4z"/>
</svg>
