<svg width="27" height="27" viewBox="0 0 27 27" fill="none" xmlns="http://www.w3.org/2000/svg">
<g clip-path="url(#clip0_261_15)">
<path d="M13.5059 2.43225C16.9784 2.43225 17.3903 2.44575 18.7613 2.511C20.1789 2.5785 21.6389 2.91375 22.6717 3.98587C23.7144 5.06812 24.0276 6.56887 24.0926 8.04487C24.1555 9.468 24.1685 9.8955 24.1685 13.5C24.1685 17.1045 24.1555 17.532 24.0926 18.9551C24.0287 20.4187 23.6981 21.9487 22.6717 23.0141C21.6291 24.0964 20.1844 24.4215 18.7613 24.489C17.3903 24.5542 16.9784 24.5677 13.5059 24.5677C10.0333 24.5677 9.62144 24.5542 8.25041 24.489C6.85119 24.4226 5.35769 24.0716 4.33998 23.0141C3.30276 21.9375 2.98412 20.4221 2.91909 18.9551C2.85623 17.532 2.84322 17.1045 2.84322 13.5C2.84322 9.8955 2.85623 9.468 2.91909 8.04487C2.98303 6.58687 3.31685 5.04787 4.33998 3.98587C5.38045 2.90587 6.83168 2.5785 8.25041 2.511C9.62144 2.44575 10.0333 2.43225 13.5059 2.43225ZM13.5059 0C9.97368 0 9.5304 0.01575 8.14311 0.081C6.13262 0.176625 4.13622 0.757125 2.68282 2.26575C1.22399 3.78 0.67016 5.84775 0.578035 7.9335C0.515173 9.3735 0.5 9.83362 0.5 13.5C0.5 17.1664 0.515173 17.6265 0.578035 19.0665C0.67016 21.1511 1.23158 23.229 2.68282 24.7342C4.14056 26.2474 6.13587 26.8234 8.14311 26.919C9.5304 26.9842 9.97368 27 13.5059 27C17.038 27 17.4813 26.9842 18.8686 26.919C20.878 26.8234 22.8766 26.2417 24.3289 24.7342C25.7888 23.2189 26.3416 21.1522 26.4337 19.0665C26.4965 17.6265 26.5117 17.1664 26.5117 13.5C26.5117 9.83362 26.4965 9.3735 26.4337 7.9335C26.3416 5.84662 25.7812 3.77325 24.3289 2.26575C22.8733 0.754875 20.8726 0.1755 18.8686 0.081C17.4813 0.01575 17.038 0 13.5059 0Z" fill="white"/>
<path d="M13.5059 6.56787C9.81766 6.56787 6.82739 9.67175 6.82739 13.5001C6.82739 17.3285 9.81766 20.4324 13.5059 20.4324C17.1941 20.4324 20.1844 17.3285 20.1844 13.5001C20.1844 9.67175 17.1941 6.56787 13.5059 6.56787ZM13.5059 18.0001C11.1117 18.0001 9.17061 15.9852 9.17061 13.5001C9.17061 11.015 11.1117 9.00012 13.5059 9.00012C15.9001 9.00012 17.8412 11.015 17.8412 13.5001C17.8412 15.9852 15.9001 18.0001 13.5059 18.0001Z" fill="white"/>
<path d="M20.4489 7.91334C21.3108 7.91334 22.0096 7.18804 22.0096 6.29334C22.0096 5.39864 21.3108 4.67334 20.4489 4.67334C19.5869 4.67334 18.8882 5.39864 18.8882 6.29334C18.8882 7.18804 19.5869 7.91334 20.4489 7.91334Z" fill="white"/>
</g>
<defs>
<clipPath id="clip0_261_15">
<rect width="26.0117" height="27" fill="white" transform="translate(0.5)"/>
</clipPath>
</defs>
</svg>
