<svg width="26" height="25" viewBox="0 0 26 25" fill="none" xmlns="http://www.w3.org/2000/svg">
<g clip-path="url(#clip0_262_31)">
<path d="M15.2919 16.9385C12.2589 15.6544 9.84713 13.2369 8.56999 10.201L12.1117 6.65313L5.59083 0.127083L2.2877 3.42917C1.71479 4.00536 1.26182 4.68944 0.954994 5.44183C0.648174 6.19422 0.493596 6.99998 0.500203 7.8125C0.500203 15.3625 10.1377 25 17.6877 25C18.5001 25.0071 19.3059 24.8528 20.0582 24.5459C20.8105 24.239 21.4943 23.7858 22.07 23.2125L25.3731 19.9094L18.8471 13.3833L15.2919 16.9385ZM20.596 21.7396C20.2135 22.1188 19.7594 22.4181 19.2601 22.6202C18.7608 22.8223 18.2263 22.9231 17.6877 22.9167C11.195 22.9167 2.58354 14.3052 2.58354 7.8125C2.5774 7.27378 2.67829 6.73921 2.88035 6.23978C3.08241 5.74036 3.38162 5.28602 3.76062 4.90313L5.59083 3.07292L9.17104 6.65313L6.11374 9.71042L6.36895 10.35C7.12025 12.3597 8.29475 14.1844 9.81286 15.7006C11.331 17.2167 13.1572 18.3888 15.1679 19.1375L15.7992 19.3781L18.8471 16.3292L22.4273 19.9094L20.596 21.7396ZM15.0835 2.08333V0C17.8453 0.00303291 20.493 1.10147 22.4459 3.05432C24.3987 5.00717 25.4972 7.65493 25.5002 10.4167H23.4169C23.4144 8.20729 22.5356 6.08912 20.9734 4.52685C19.4111 2.96459 17.2929 2.08581 15.0835 2.08333ZM15.0835 6.25V4.16667C16.7406 4.16832 18.3294 4.82733 19.5011 5.99908C20.6729 7.17082 21.3319 8.75957 21.3335 10.4167H19.2502C19.2502 9.3116 18.8112 8.25179 18.0298 7.47039C17.2484 6.68899 16.1886 6.25 15.0835 6.25Z" fill="white"/>
</g>
<defs>
<clipPath id="clip0_262_31">
<rect width="25" height="25" fill="white" transform="translate(0.5)"/>
</clipPath>
</defs>
</svg>
