<?xml version="1.0" encoding="utf-8"?>
<!-- Generator: Adobe Illustrator 25.2.3, SVG Export Plug-In . SVG Version: 6.00 Build 0)  -->
<svg version="1.1" id="Capa_1" xmlns="http://www.w3.org/2000/svg" xmlns:xlink="http://www.w3.org/1999/xlink" x="0px" y="0px"
	 viewBox="0 0 500 130" style="enable-background:new 0 0 500 130;" xml:space="preserve">
<style type="text/css">
	.st0{fill:#FFFFFF;}
</style>
<g>
	<path class="st0" d="M25.2,85.2V49.6c0.4-8.6,7.8-16.3,15.5-16.3h34.1c12.6,0,26.7,14.4,26.7,23.3c0,0,1.8,8.3-5.3,13.7
		C89.7,75,47.7,95.2,47.7,95.2C39.2,99.2,25.2,94.4,25.2,85.2z"/>
	<rect x="108.8" y="32.8" class="st0" width="3.7" height="64.4"/>
	<g>
		<g>
			<path class="st0" d="M143.1,50.1c1.1,1.3,1.6,2.9,1.6,4.9c0,2.6-0.9,4.5-2.8,5.9c-1.9,1.4-4.7,2.1-8.4,2.1h-13.8V33h12.9
				c3.3,0,5.9,0.7,7.8,2s2.8,3.2,2.8,5.7c0,1.6-0.4,3.1-1.2,4.2c-0.8,1.1-1.9,2-3.4,2.6C140.5,48,142,48.8,143.1,50.1z M122.9,35.7
				v10.9h9.5c2.4,0,4.3-0.5,5.6-1.4c1.3-0.9,2-2.3,2-4c0-1.8-0.7-3.1-2-4s-3.2-1.4-5.6-1.4L122.9,35.7L122.9,35.7z M139.5,59
				c1.4-0.9,2.1-2.3,2.1-4.3c0-3.7-2.7-5.6-8.1-5.6h-10.6v11.2h10.6C136.1,60.4,138.1,59.9,139.5,59z"/>
			<path class="st0" d="M173.2,36.2c2.2,2.3,3.4,5.5,3.4,9.8v17h-3.1v-8.8h-18.8V63h-3.1V46c0-4.3,1.1-7.6,3.4-9.8
				c2.2-2.3,5.3-3.4,9.1-3.4C167.9,32.8,171,33.9,173.2,36.2z M173.5,51.4v-5.7c0-3.3-0.8-5.9-2.5-7.6s-4-2.5-6.9-2.5
				c-3,0-5.3,0.9-6.9,2.5c-1.6,1.7-2.5,4.2-2.5,7.6v5.7H173.5z"/>
			<path class="st0" d="M207.6,36c2,2.1,3.1,5.2,3.1,9.1V63h-3.2V45.2c0-3.2-0.8-5.6-2.4-7.2s-3.8-2.4-6.6-2.4c-3,0-5.3,0.9-6.9,2.6
				c-1.6,1.7-2.5,4.3-2.5,7.8v17h-3.2V33h3v5.1c1.9-3.5,5.3-5.3,10.1-5.3C202.7,32.8,205.5,33.9,207.6,36z"/>
			<path class="st0" d="M225,61.3c-2.4-1.3-4.2-3.1-5.6-5.4c-1.4-2.3-2-4.9-2-7.8s0.7-5.5,2-7.8s3.2-4.1,5.6-5.4c2.4-1.3,5.1-2,8-2
				c2.2,0,4.3,0.4,6.2,1.1s3.5,1.8,4.8,3.2l-2,2c-2.3-2.4-5.3-3.6-8.9-3.6c-2.4,0-4.5,0.5-6.5,1.6s-3.5,2.6-4.6,4.4
				c-1.1,1.9-1.6,4-1.6,6.3s0.6,4.4,1.6,6.3c1.1,1.9,2.6,3.4,4.6,4.4s4.1,1.6,6.5,1.6c3.6,0,6.5-1.2,8.9-3.6l2,2
				c-1.3,1.4-2.9,2.5-4.8,3.3c-1.9,0.8-4,1.1-6.2,1.1C230,63.2,227.3,62.6,225,61.3z"/>
			<path class="st0" d="M255,61.3c-2.4-1.3-4.3-3.1-5.6-5.4s-2-4.9-2-7.8s0.7-5.5,2-7.8s3.2-4.1,5.6-5.4c2.4-1.3,5.1-2,8.1-2
				c3,0,5.6,0.7,8,2c2.4,1.3,4.2,3.1,5.6,5.4c1.4,2.3,2,4.9,2,7.8c0,2.9-0.7,5.5-2,7.8s-3.2,4.1-5.6,5.4s-5,2-8,2
				C260.1,63.2,257.4,62.6,255,61.3z M269.5,58.8c1.9-1.1,3.4-2.6,4.5-4.4s1.6-4,1.6-6.4c0-2.3-0.5-4.4-1.6-6.4
				c-1.1-1.9-2.6-3.4-4.5-4.4c-1.9-1.1-4-1.6-6.4-1.6c-2.4,0-4.5,0.5-6.4,1.6c-1.9,1.1-3.4,2.6-4.5,4.4c-1.1,1.9-1.6,4-1.6,6.4
				c0,2.3,0.6,4.4,1.6,6.4c1.1,1.9,2.6,3.4,4.5,4.4c1.9,1.1,4.1,1.6,6.4,1.6C265.4,60.4,267.6,59.9,269.5,58.8z"/>
			<path class="st0" d="M144,67v29.9h-3v-5c-2,3.5-5.3,5.3-10.1,5.3c-3.6,0-6.4-1.1-8.4-3.2c-2-2.1-3-5.2-3-9.1V67h3.2v17.7
				c0,3.2,0.8,5.6,2.3,7.2c1.6,1.6,3.7,2.4,6.5,2.4c2.9,0,5.2-0.9,6.9-2.6c1.6-1.7,2.5-4.3,2.5-7.8V67H144z"/>
			<path class="st0" d="M175.2,70c2,2.1,3.1,5.2,3.1,9.2v17.8h-3.2V79.2c0-3.2-0.8-5.6-2.4-7.2s-3.8-2.4-6.6-2.4
				c-3,0-5.3,0.9-6.9,2.6c-1.6,1.7-2.5,4.3-2.5,7.8v17h-3.2V67h3v5c1.9-3.5,5.3-5.3,10.1-5.3C170.3,66.8,173.2,67.8,175.2,70z"/>
			<path class="st0" d="M193.8,69.7v24.5h6.1v2.7h-15.3v-2.7h6.1V69.7h-6.1V67h15.3v2.7H193.8z"/>
			<path class="st0" d="M231.4,67l-13.3,29.9H215L201.8,67h3.4l11.5,26l11.6-26L231.4,67L231.4,67z"/>
			<path class="st0" d="M256.7,93.5c-1.2,1.2-2.9,2.1-4.9,2.7c-2,0.6-4.3,1-6.8,1c-2.6,0-4.9-0.4-6.7-1.1c-1.8-0.7-3.2-1.7-4.1-3
				s-1.4-2.7-1.4-4.3c0-1.8,0.5-3.3,1.6-4.6c1.1-1.2,2.5-2.1,4.2-2.6c-1.4-0.5-2.5-1.4-3.3-2.6c-0.8-1.2-1.2-2.6-1.2-4.2
				c0-1.5,0.4-2.9,1.3-4.1s2.2-2.2,3.9-2.9s3.9-1.1,6.4-1.1c1.8,0,3.6,0.2,5.3,0.6c1.7,0.4,3.2,1,4.4,1.8l-1,2.5
				c-2.6-1.5-5.5-2.2-8.6-2.2c-2.8,0-4.9,0.5-6.4,1.6s-2.2,2.4-2.2,4.1s0.6,3,1.8,3.9c1.2,0.9,2.9,1.4,5,1.4h7.4v2.7h-7.6
				c-2.4,0-4.4,0.5-5.8,1.4c-1.4,0.9-2.1,2.3-2.1,4.1c0,1.8,0.8,3.2,2.3,4.3s3.8,1.6,6.9,1.6c2.1,0,4.1-0.3,5.9-0.9
				c1.8-0.6,3.3-1.4,4.4-2.5L256.7,93.5z"/>
			<path class="st0" d="M282.8,96.9l-6.8-9.6c-0.8,0.1-1.6,0.1-2.4,0.1h-8v9.5h-3.2V67h11.2c3.8,0,6.8,0.9,9,2.7s3.2,4.3,3.2,7.5
				c0,2.3-0.6,4.3-1.8,5.9s-2.9,2.8-5.1,3.5l7.3,10.3L282.8,96.9L282.8,96.9z M280.2,82.8c1.6-1.3,2.4-3.1,2.4-5.5
				c0-2.4-0.8-4.3-2.4-5.6c-1.6-1.3-3.8-1.9-6.8-1.9h-8v15h8C276.4,84.8,278.7,84.1,280.2,82.8z"/>
			<path class="st0" d="M295,96.1c-2-0.7-3.6-1.6-4.7-2.8l1.2-2.4c1.1,1.1,2.5,2,4.3,2.6c1.8,0.7,3.6,1,5.6,1c2.7,0,4.7-0.5,6-1.5
				c1.3-1,2-2.3,2-3.8c0-1.2-0.4-2.1-1.1-2.9s-1.6-1.3-2.7-1.6c-1.1-0.4-2.5-0.8-4.4-1.3c-2.2-0.6-4-1.1-5.4-1.6s-2.5-1.3-3.4-2.4
				c-1-1.1-1.4-2.5-1.4-4.4c0-1.5,0.4-2.9,1.2-4.1c0.8-1.2,2-2.2,3.7-3c1.6-0.7,3.7-1.1,6.2-1.1c1.7,0,3.4,0.2,5,0.7
				c1.6,0.5,3.1,1.1,4.2,1.9l-1.1,2.5c-1.2-0.8-2.6-1.4-4-1.9s-2.8-0.6-4.2-0.6c-2.6,0-4.6,0.5-5.9,1.5c-1.3,1-2,2.3-2,3.9
				c0,1.2,0.4,2.2,1.1,2.9s1.6,1.3,2.7,1.7c1.1,0.4,2.6,0.8,4.4,1.3c2.2,0.5,4,1.1,5.3,1.6c1.4,0.5,2.5,1.3,3.4,2.4
				c0.9,1.1,1.4,2.5,1.4,4.3c0,1.5-0.4,2.9-1.2,4.1s-2.1,2.2-3.7,3s-3.8,1.1-6.2,1.1C299.1,97.2,297,96.8,295,96.1z"/>
			<path class="st0" d="M325.5,69.7v24.5h6.1v2.7h-15.3v-2.7h6.1V69.7h-6.1V67h15.3v2.7H325.5z"/>
			<path class="st0" d="M357.1,72.5c-2.9-1.7-6.2-2.7-9.8-2.9v27.4h-3.2V69.6c-3.5,0.2-6.8,1.2-9.8,3l-1.1-2.5
				c3.7-2.2,7.9-3.3,12.5-3.3c4.7,0,8.9,1.1,12.5,3.3L357.1,72.5z"/>
			<path class="st0" d="M383.9,70.2c2.2,2.3,3.4,5.5,3.4,9.8v17h-3.1v-8.8h-18.8v8.8h-3.1V80c0-4.3,1.1-7.5,3.4-9.8
				c2.2-2.3,5.3-3.4,9.1-3.4C378.6,66.8,381.6,67.9,383.9,70.2z M384.1,85.4v-5.7c0-3.3-0.8-5.9-2.5-7.5c-1.6-1.7-4-2.5-6.9-2.5
				s-5.3,0.9-6.9,2.5c-1.6,1.7-2.5,4.2-2.5,7.5v5.7H384.1z"/>
			<path class="st0" d="M417,96.9l-6.8-9.6c-0.8,0.1-1.6,0.1-2.4,0.1h-8v9.5h-3.2V67h11.2c3.8,0,6.8,0.9,9,2.7s3.2,4.3,3.2,7.5
				c0,2.3-0.6,4.3-1.8,5.9c-1.2,1.6-2.9,2.8-5.1,3.5l7.3,10.3L417,96.9L417,96.9z M414.5,82.8c1.6-1.3,2.4-3.1,2.4-5.5
				c0-2.4-0.8-4.3-2.4-5.6c-1.6-1.3-3.8-1.9-6.8-1.9h-8v15h8C410.7,84.8,412.9,84.1,414.5,82.8z"/>
			<path class="st0" d="M433.6,69.7v24.5h6.1v2.7h-15.3v-2.7h6.1V69.7h-6.1V67h15.3v2.7H433.6z"/>
			<path class="st0" d="M451.1,95.2c-2.4-1.3-4.3-3.1-5.6-5.5s-2-4.9-2-7.8s0.7-5.5,2-7.8s3.2-4.1,5.6-5.4c2.4-1.3,5.1-2,8.1-2
				c3,0,5.6,0.7,8,2c2.4,1.3,4.2,3.1,5.6,5.5c1.4,2.3,2,4.9,2,7.8c0,2.9-0.7,5.5-2,7.8c-1.4,2.3-3.2,4.1-5.6,5.5s-5,2-8,2
				C456.2,97.2,453.5,96.5,451.1,95.2z M465.6,92.8c1.9-1.1,3.4-2.5,4.5-4.5c1.1-1.9,1.6-4,1.6-6.4s-0.5-4.5-1.6-6.4
				s-2.6-3.4-4.5-4.5s-4-1.6-6.4-1.6c-2.4,0-4.5,0.5-6.4,1.6c-1.9,1.1-3.4,2.5-4.5,4.5c-1.1,1.9-1.6,4-1.6,6.4s0.5,4.5,1.6,6.4
				s2.6,3.4,4.5,4.5s4.1,1.6,6.4,1.6C461.5,94.4,463.7,93.8,465.6,92.8z"/>
		</g>
	</g>
</g>
</svg>
