<svg width="33" height="33" viewBox="0 0 33 33" fill="none" xmlns="http://www.w3.org/2000/svg">
<g clip-path="url(#clip0_262_27)">
<path d="M16.444 32.5108L15.5145 31.7141C14.2332 30.6412 3.04529 20.9789 3.04529 13.9111C3.04529 6.51126 9.0441 0.512451 16.444 0.512451C23.8439 0.512451 29.8427 6.51126 29.8427 13.9111C29.8427 20.9789 18.6547 30.6413 17.3787 31.7194L16.444 32.5108ZM16.444 3.40964C10.6469 3.4162 5.9491 8.11401 5.94254 13.9111C5.94254 18.3512 12.8258 25.4442 16.444 28.6906C20.0622 25.4429 26.9454 18.3458 26.9454 13.9111C26.9389 8.11401 22.2411 3.41626 16.444 3.40964Z" fill="white"/>
<path d="M16.4439 19.2223C13.5107 19.2223 11.1328 16.8445 11.1328 13.9112C11.1328 10.978 13.5107 8.6001 16.4439 8.6001C19.3772 8.6001 21.7551 10.978 21.7551 13.9112C21.7551 16.8445 19.3772 19.2223 16.4439 19.2223ZM16.4439 11.2556C14.9773 11.2556 13.7884 12.4445 13.7884 13.9112C13.7884 15.3778 14.9773 16.5667 16.4439 16.5667C17.9106 16.5667 19.0995 15.3778 19.0995 13.9112C19.0995 12.4445 17.9106 11.2556 16.4439 11.2556Z" fill="white"/>
</g>
<defs>
<clipPath id="clip0_262_27">
<rect width="32" height="32" fill="white" transform="translate(0.5 0.5)"/>
</clipPath>
</defs>
</svg>
