<svg width="26" height="25" viewBox="0 0 26 25" fill="none" xmlns="http://www.w3.org/2000/svg">
<g clip-path="url(#clip0_262_25)">
<mask id="path-1-inside-1_262_25" fill="white">
<path d="M20.2917 1.04175H5.70833C4.32751 1.0434 3.00371 1.59267 2.02731 2.56906C1.05092 3.54545 0.501654 4.86925 0.5 6.25008L0.5 18.7501C0.501654 20.1309 1.05092 21.4547 2.02731 22.4311C3.00371 23.4075 4.32751 23.9568 5.70833 23.9584H20.2917C21.6725 23.9568 22.9963 23.4075 23.9727 22.4311C24.9491 21.4547 25.4983 20.1309 25.5 18.7501V6.25008C25.4983 4.86925 24.9491 3.54545 23.9727 2.56906C22.9963 1.59267 21.6725 1.0434 20.2917 1.04175ZM5.70833 3.12508H20.2917C20.9154 3.12631 21.5245 3.31416 22.0406 3.66446C22.5567 4.01476 22.9561 4.51148 23.1875 5.09071L15.2104 13.0688C14.6234 13.6535 13.8286 13.9818 13 13.9818C12.1714 13.9818 11.3766 13.6535 10.7896 13.0688L2.8125 5.09071C3.0439 4.51148 3.44335 4.01476 3.95942 3.66446C4.4755 3.31416 5.0846 3.12631 5.70833 3.12508ZM20.2917 21.8751H5.70833C4.87953 21.8751 4.08468 21.5458 3.49862 20.9598C2.91257 20.3737 2.58333 19.5789 2.58333 18.7501V7.81258L9.31667 14.5417C10.2944 15.517 11.619 16.0647 13 16.0647C14.381 16.0647 15.7056 15.517 16.6833 14.5417L23.4167 7.81258V18.7501C23.4167 19.5789 23.0874 20.3737 22.5014 20.9598C21.9153 21.5458 21.1205 21.8751 20.2917 21.8751Z"/>
</mask>
<path d="M20.2917 1.04175H5.70833C4.32751 1.0434 3.00371 1.59267 2.02731 2.56906C1.05092 3.54545 0.501654 4.86925 0.5 6.25008L0.5 18.7501C0.501654 20.1309 1.05092 21.4547 2.02731 22.4311C3.00371 23.4075 4.32751 23.9568 5.70833 23.9584H20.2917C21.6725 23.9568 22.9963 23.4075 23.9727 22.4311C24.9491 21.4547 25.4983 20.1309 25.5 18.7501V6.25008C25.4983 4.86925 24.9491 3.54545 23.9727 2.56906C22.9963 1.59267 21.6725 1.0434 20.2917 1.04175ZM5.70833 3.12508H20.2917C20.9154 3.12631 21.5245 3.31416 22.0406 3.66446C22.5567 4.01476 22.9561 4.51148 23.1875 5.09071L15.2104 13.0688C14.6234 13.6535 13.8286 13.9818 13 13.9818C12.1714 13.9818 11.3766 13.6535 10.7896 13.0688L2.8125 5.09071C3.0439 4.51148 3.44335 4.01476 3.95942 3.66446C4.4755 3.31416 5.0846 3.12631 5.70833 3.12508ZM20.2917 21.8751H5.70833C4.87953 21.8751 4.08468 21.5458 3.49862 20.9598C2.91257 20.3737 2.58333 19.5789 2.58333 18.7501V7.81258L9.31667 14.5417C10.2944 15.517 11.619 16.0647 13 16.0647C14.381 16.0647 15.7056 15.517 16.6833 14.5417L23.4167 7.81258V18.7501C23.4167 19.5789 23.0874 20.3737 22.5014 20.9598C21.9153 21.5458 21.1205 21.8751 20.2917 21.8751Z" fill="white"/>
<path d="M20.2917 1.04175L20.2977 -3.95825H20.2917V1.04175ZM5.70833 1.04175V-3.95826L5.70234 -3.95825L5.70833 1.04175ZM0.5 6.25008L-4.5 6.24409V6.25008H0.5ZM0.5 18.7501H-4.5L-4.5 18.7561L0.5 18.7501ZM5.70833 23.9584L5.70234 28.9584H5.70833V23.9584ZM20.2917 23.9584V28.9584L20.2977 28.9584L20.2917 23.9584ZM25.5 18.7501L30.5 18.7561V18.7501H25.5ZM25.5 6.25008L30.5 6.25008L30.5 6.24409L25.5 6.25008ZM5.70833 3.12508V-1.87493L5.6985 -1.87491L5.70833 3.12508ZM20.2917 3.12508L20.3015 -1.87492H20.2917V3.12508ZM23.1875 5.09071L26.7233 8.62601L29.0532 6.29578L27.8307 3.23572L23.1875 5.09071ZM15.2104 13.0688L18.7389 16.6115L18.7462 16.6041L15.2104 13.0688ZM10.7896 13.0688L7.25381 16.6041L7.26115 16.6115L10.7896 13.0688ZM2.8125 5.09071L-1.83067 3.23572L-3.05319 6.29578L-0.723265 8.62601L2.8125 5.09071ZM20.2917 21.8751V26.8751V21.8751ZM5.70833 21.8751V26.8751V21.8751ZM2.58333 18.7501H-2.41667H2.58333ZM2.58333 7.81258L6.11777 4.27595L-2.41667 -4.25321V7.81258H2.58333ZM9.31667 14.5417L5.78222 18.0784L5.78561 18.0818L9.31667 14.5417ZM13 16.0647V11.0647V16.0647ZM16.6833 14.5417L20.2144 18.0818L20.2178 18.0784L16.6833 14.5417ZM23.4167 7.81258H28.4167V-4.25321L19.8822 4.27595L23.4167 7.81258ZM23.4167 18.7501H28.4167H23.4167ZM20.2917 -3.95825H5.70833V6.04175H20.2917V-3.95825ZM5.70234 -3.95825C2.99751 -3.95501 0.404386 -2.87908 -1.50822 -0.966473L5.56285 6.10459C5.60303 6.06441 5.6575 6.04181 5.71432 6.04174L5.70234 -3.95825ZM-1.50822 -0.966473C-3.42083 0.946135 -4.49676 3.53926 -4.5 6.24409L5.5 6.25607C5.50006 6.19925 5.52267 6.14477 5.56285 6.10459L-1.50822 -0.966473ZM-4.5 6.25008V18.7501H5.5V6.25008H-4.5ZM-4.5 18.7561C-4.49676 21.4609 -3.42083 24.054 -1.50822 25.9666L5.56285 18.8956C5.52267 18.8554 5.50006 18.8009 5.5 18.7441L-4.5 18.7561ZM-1.50822 25.9666C0.404388 27.8792 2.99751 28.9552 5.70234 28.9584L5.71432 18.9584C5.6575 18.9584 5.60302 18.9357 5.56285 18.8956L-1.50822 25.9666ZM5.70833 28.9584H20.2917V18.9584H5.70833V28.9584ZM20.2977 28.9584C23.0025 28.9552 25.5956 27.8792 27.5082 25.9666L20.4372 18.8956C20.397 18.9357 20.3425 18.9584 20.2857 18.9584L20.2977 28.9584ZM27.5082 25.9666C29.4208 24.054 30.4968 21.4609 30.5 18.7561L20.5 18.7441C20.4999 18.8009 20.4773 18.8554 20.4372 18.8956L27.5082 25.9666ZM30.5 18.7501V6.25008H20.5V18.7501H30.5ZM30.5 6.24409C30.4968 3.53926 29.4208 0.946137 27.5082 -0.966473L20.4372 6.10459C20.4773 6.14477 20.4999 6.19925 20.5 6.25607L30.5 6.24409ZM27.5082 -0.966473C25.5956 -2.87908 23.0025 -3.95501 20.2977 -3.95825L20.2857 6.04174C20.3425 6.04181 20.397 6.06442 20.4372 6.10459L27.5082 -0.966473ZM5.70833 8.12508H20.2917V-1.87492H5.70833V8.12508ZM20.2818 8.12507C19.9076 8.12434 19.5421 8.01163 19.2325 7.80144L24.8487 -0.472523C23.5069 -1.38331 21.9232 -1.87172 20.3015 -1.87491L20.2818 8.12507ZM19.2325 7.80144C18.9228 7.59126 18.6832 7.29323 18.5443 6.9457L27.8307 3.23572C27.229 1.72974 26.1905 0.43826 24.8487 -0.472523L19.2325 7.80144ZM19.6517 1.5554L11.6747 9.53353L18.7462 16.6041L26.7233 8.62601L19.6517 1.5554ZM11.682 9.52621C12.032 9.17757 12.5059 8.98182 13 8.98182V18.9818C15.1512 18.9818 17.2147 18.1295 18.7388 16.6115L11.682 9.52621ZM13 8.98182C13.4941 8.98182 13.968 9.17757 14.318 9.52621L7.26115 16.6115C8.7853 18.1295 10.8488 18.9818 13 18.9818V8.98182ZM14.3253 9.53353L6.34826 1.5554L-0.723265 8.62601L7.25382 16.6041L14.3253 9.53353ZM7.45567 6.9457C7.31683 7.29323 7.07716 7.59126 6.76751 7.80144L1.15133 -0.472523C-0.190466 0.438261 -1.22902 1.72974 -1.83067 3.23572L7.45567 6.9457ZM6.76751 7.80144C6.45787 8.01163 6.09241 8.12434 5.71817 8.12507L5.6985 -1.87491C4.07679 -1.87172 2.49314 -1.38331 1.15133 -0.472523L6.76751 7.80144ZM20.2917 16.8751H5.70833V26.8751H20.2917V16.8751ZM5.70833 16.8751C6.20561 16.8751 6.68253 17.0726 7.03416 17.4243L-0.0369095 24.4953C1.48682 26.0191 3.55345 26.8751 5.70833 26.8751V16.8751ZM7.03416 17.4243C7.38579 17.7759 7.58333 18.2528 7.58333 18.7501H-2.41667C-2.41667 20.905 -1.56064 22.9716 -0.0369095 24.4953L7.03416 17.4243ZM7.58333 18.7501V7.81258H-2.41667V18.7501H7.58333ZM-0.951107 11.3492L5.78223 18.0784L12.8511 11.0051L6.11777 4.27595L-0.951107 11.3492ZM5.78561 18.0818C7.70066 19.992 10.2951 21.0647 13 21.0647V11.0647C12.9429 11.0647 12.8881 11.0421 12.8477 11.0017L5.78561 18.0818ZM13 21.0647C15.7049 21.0647 18.2993 19.992 20.2144 18.0818L13.1523 11.0017C13.1119 11.0421 13.0571 11.0647 13 11.0647L13 21.0647ZM20.2178 18.0784L26.9511 11.3492L19.8822 4.27595L13.1489 11.0051L20.2178 18.0784ZM18.4167 7.81258V18.7501H28.4167V7.81258H18.4167ZM18.4167 18.7501C18.4167 18.2528 18.6142 17.7759 18.9658 17.4243L26.0369 24.4953C27.5606 22.9716 28.4167 20.905 28.4167 18.7501H18.4167ZM18.9658 17.4243C19.3175 17.0726 19.7944 16.8751 20.2917 16.8751V26.8751C22.4465 26.8751 24.5132 26.0191 26.0369 24.4953L18.9658 17.4243Z" fill="white" mask="url(#path-1-inside-1_262_25)"/>
</g>
<defs>
<clipPath id="clip0_262_25">
<rect width="25" height="25" fill="white" transform="translate(0.5)"/>
</clipPath>
</defs>
</svg>
