<svg width="288" height="48" viewBox="0 0 288 48" fill="none" xmlns="http://www.w3.org/2000/svg">
<path d="M75.5466 12.8018C76.2318 13.7421 76.5713 14.949 76.5713 16.4298C76.5713 18.3327 75.9628 19.7913 74.7524 20.8131C73.5356 21.8349 71.7423 22.3458 69.3727 22.3458H60.5538V0.185059H68.8219C70.961 0.185059 72.6133 0.681135 73.7917 1.6733C74.9702 2.66546 75.5594 4.07225 75.5594 5.88628C75.5594 7.10797 75.2968 8.15196 74.778 9.00344C74.2593 9.85492 73.542 10.4991 72.6261 10.9211C73.8942 11.2395 74.8613 11.8689 75.5466 12.8018ZM62.584 2.11755V10.1585H68.6938C70.2437 10.1585 71.4413 9.8179 72.2803 9.12931C73.1193 8.44072 73.542 7.44856 73.542 6.13802C73.542 4.82748 73.1193 3.83532 72.2803 3.14673C71.4413 2.45814 70.2437 2.11755 68.6938 2.11755H62.584ZM73.2346 19.4063C74.112 18.7325 74.5475 17.6737 74.5475 16.2373C74.5475 13.4682 72.8119 12.091 69.3471 12.091H62.584V20.4207H69.3471C71.0635 20.4207 72.3572 20.0801 73.2346 19.4063Z" fill="#056061"/>
<path d="M94.8301 2.51742C96.2647 4.19817 96.982 6.61933 96.982 9.78092V22.3532H94.9838V15.8301H82.9307V22.3532H80.9581V9.78092C80.9581 6.61193 81.6754 4.19076 83.11 2.51742C84.5446 0.836668 86.4915 0 88.9572 0C91.4357 0 93.3955 0.836668 94.8301 2.51742ZM94.9838 13.8014V9.5588C94.9838 7.09321 94.4522 5.22735 93.3955 3.96864C92.3388 2.70993 90.8594 2.08797 88.9572 2.08797C87.0551 2.08797 85.5821 2.71734 84.519 3.96864C83.4623 5.22735 82.9307 7.08581 82.9307 9.5588V13.8014H94.9838Z" fill="#056061"/>
<path d="M116.823 2.36934C118.13 3.95383 118.783 6.2121 118.783 9.14416V22.3458H116.753V9.20339C116.753 6.86367 116.253 5.08667 115.248 3.8872C114.242 2.68772 112.84 2.08057 111.027 2.08057C109.125 2.08057 107.652 2.71733 106.589 3.99825C105.532 5.27918 105.001 7.18947 105.001 9.74391V22.3458H102.977V0.185105H104.924V3.92422C106.147 1.31054 108.312 0 111.412 0C113.711 0 115.517 0.792245 116.823 2.36934Z" fill="#056061"/>
<path d="M127.966 21.087C126.442 20.1171 125.244 18.7695 124.38 17.0518C123.515 15.334 123.08 13.4089 123.08 11.2765C123.08 9.14409 123.515 7.219 124.38 5.50123C125.244 3.78346 126.448 2.4359 127.979 1.46595C129.516 0.496001 131.232 0.00732422 133.128 0.00732422C134.55 0.00732422 135.869 0.281279 137.073 0.829189C138.277 1.3771 139.302 2.18415 140.141 3.23555L138.854 4.72378C137.355 2.96899 135.466 2.09531 133.186 2.09531C131.668 2.09531 130.291 2.49513 129.048 3.29478C127.806 4.09443 126.833 5.19766 126.134 6.58964C125.43 7.98163 125.078 9.54391 125.078 11.2765C125.078 13.0091 125.43 14.5714 126.134 15.9633C126.839 17.3553 127.812 18.4511 129.048 19.2582C130.285 20.0653 131.668 20.4577 133.186 20.4577C135.485 20.4577 137.374 19.5692 138.854 17.7996L140.141 19.2878C139.302 20.3466 138.271 21.1537 137.06 21.709C135.844 22.2717 134.524 22.5457 133.102 22.5457C131.207 22.5383 129.49 22.057 127.966 21.087Z" fill="#056061"/>
<path d="M147.192 21.0722C145.649 20.0875 144.445 18.7473 143.574 17.0369C142.703 15.3266 142.274 13.4089 142.274 11.2765C142.274 9.14409 142.709 7.2264 143.574 5.51604C144.438 3.80567 145.649 2.45811 147.192 1.48076C148.736 0.496004 150.452 0.00732422 152.354 0.00732422C154.25 0.00732422 155.966 0.496001 157.491 1.46595C159.015 2.4359 160.212 3.78346 161.09 5.50123C161.967 7.2264 162.403 9.15149 162.403 11.2765C162.403 13.4089 161.967 15.334 161.09 17.0518C160.212 18.7695 159.015 20.1171 157.491 21.087C155.966 22.057 154.256 22.5457 152.354 22.5457C150.459 22.5383 148.736 22.0496 147.192 21.0722ZM156.466 19.2656C157.689 18.4734 158.65 17.3775 159.341 15.9707C160.033 14.5639 160.379 13.0017 160.379 11.2691C160.379 9.53651 160.033 7.97423 159.341 6.56743C158.65 5.16064 157.689 4.06482 156.466 3.27257C155.243 2.48032 153.872 2.0879 152.361 2.0879C150.843 2.0879 149.472 2.48032 148.236 3.27257C147.007 4.06482 146.033 5.16064 145.335 6.56743C144.631 7.97423 144.278 9.53651 144.278 11.2691C144.278 13.0017 144.631 14.5639 145.335 15.9707C146.039 17.3775 147.007 18.4734 148.236 19.2656C149.466 20.0579 150.843 20.4503 152.361 20.4503C153.872 20.4503 155.243 20.0579 156.466 19.2656Z" fill="#056061"/>
<path d="M76.0849 25.3297V47.4904H74.138V43.7513C72.8763 46.365 70.7308 47.6755 67.7015 47.6755C65.4216 47.6755 63.6283 46.8833 62.3346 45.2988C61.0409 43.7143 60.3877 41.456 60.3877 38.5239V25.3223H62.4179V38.4647C62.4179 40.8118 62.9174 42.5814 63.9101 43.7883C64.9028 44.9878 66.299 45.5949 68.0858 45.5949C69.9687 45.5949 71.4289 44.9582 72.4792 43.6772C73.5295 42.4037 74.0547 40.486 74.0547 37.9316V25.3297H76.0849Z" fill="#056061"/>
<path d="M96.0914 27.514C97.3979 29.0985 98.0512 31.3567 98.0512 34.2888V47.4904H96.021V34.3554C96.021 32.0157 95.5215 30.2387 94.516 29.0392C93.5105 27.8397 92.1079 27.2326 90.2955 27.2326C88.3933 27.2326 86.9203 27.8694 85.8572 29.1503C84.8005 30.4312 84.2689 32.3415 84.2689 34.8959V47.4979H82.2451V25.3371H84.1921V29.0762C85.4153 26.4626 87.58 25.152 90.6797 25.152C92.9789 25.1446 94.785 25.9295 96.0914 27.514Z" fill="#056061"/>
<path d="M108.017 27.3585V45.4691H111.904V47.4979H102.125V45.4691H106.012V27.3585H102.125V25.3297H111.904V27.3585H108.017Z" fill="#056061"/>
<path d="M132.091 25.3297L123.598 47.4904H121.6L113.108 25.3297H115.298L122.638 44.5806L130.035 25.3297H132.091Z" fill="#056061"/>
<path d="M148.3 44.9656C147.512 45.8319 146.469 46.4983 145.162 46.9795C143.856 47.4534 142.408 47.6903 140.82 47.6903C139.142 47.6903 137.714 47.4238 136.535 46.8981C135.357 46.3724 134.473 45.6394 133.878 44.7139C133.282 43.7883 132.987 42.7221 132.987 41.5153C132.987 40.1825 133.327 39.0571 134.012 38.1242C134.697 37.1986 135.594 36.5545 136.708 36.1916C135.792 35.7918 135.082 35.1551 134.569 34.274C134.057 33.4003 133.801 32.3711 133.801 31.1864C133.801 30.0684 134.076 29.0466 134.633 28.1285C135.19 27.2104 136.029 26.4848 137.15 25.9443C138.271 25.4038 139.629 25.1372 141.217 25.1372C142.389 25.1372 143.523 25.2927 144.624 25.5963C145.726 25.8998 146.674 26.3367 147.461 26.9068L146.834 28.7727C145.156 27.6768 143.311 27.1289 141.3 27.1289C139.526 27.1289 138.175 27.5213 137.233 28.2988C136.292 29.0762 135.824 30.0906 135.824 31.3345C135.824 32.5784 136.202 33.541 136.958 34.2147C137.714 34.8885 138.79 35.2291 140.173 35.2291H144.938V37.2579H140.09C138.521 37.2579 137.278 37.5985 136.362 38.287C135.447 38.9756 134.992 39.99 134.992 41.345C134.992 42.6777 135.491 43.7291 136.484 44.514C137.477 45.2988 138.943 45.6838 140.878 45.6838C142.229 45.6838 143.491 45.4617 144.656 45.0174C145.822 44.5732 146.776 43.966 147.506 43.1812L148.3 44.9656Z" fill="#056061"/>
<path d="M164.984 47.4979L160.603 40.375C160.11 40.4417 159.598 40.4713 159.066 40.4713H153.917V47.4979H151.893V25.3372H159.066C161.513 25.3372 163.428 26.0109 164.817 27.3659C166.207 28.7209 166.899 30.5719 166.899 32.9413C166.899 34.6738 166.521 36.1324 165.765 37.3245C165.01 38.5166 163.927 39.3755 162.518 39.9012L167.2 47.4979H164.984ZM163.364 37.0136C164.369 36.0436 164.869 34.6812 164.869 32.9264C164.869 31.1346 164.369 29.7575 163.364 28.7949C162.358 27.8324 160.911 27.3511 159.009 27.3511H153.917V38.4648H159.009C160.911 38.4722 162.365 37.9835 163.364 37.0136Z" fill="#056061"/>
<path d="M172.804 46.8907C171.498 46.365 170.492 45.669 169.775 44.8027L170.569 42.9961C171.261 43.7958 172.183 44.4473 173.336 44.9434C174.489 45.4395 175.673 45.6838 176.897 45.6838C178.613 45.6838 179.9 45.321 180.758 44.588C181.617 43.8624 182.046 42.9147 182.046 41.7522C182.046 40.8637 181.815 40.1603 181.348 39.6346C180.88 39.1089 180.31 38.7017 179.638 38.4129C178.959 38.1316 178.024 37.8206 176.82 37.48C175.379 37.058 174.226 36.6507 173.368 36.2583C172.51 35.8659 171.773 35.2736 171.165 34.4665C170.55 33.6668 170.249 32.5784 170.249 31.2087C170.249 30.0906 170.505 29.0688 171.017 28.1507C171.53 27.2326 172.311 26.4996 173.374 25.9517C174.431 25.4038 175.75 25.1298 177.319 25.1298C178.414 25.1298 179.49 25.3001 180.534 25.6555C181.585 26.0035 182.494 26.4848 183.256 27.0993L182.571 28.9652C181.77 28.3506 180.912 27.8916 179.996 27.588C179.081 27.2844 178.19 27.1289 177.313 27.1289C175.635 27.1289 174.367 27.5066 173.521 28.2544C172.67 29.0022 172.247 29.9722 172.247 31.1494C172.247 32.0379 172.478 32.7487 172.945 33.2892C173.413 33.8297 173.995 34.237 174.7 34.5257C175.404 34.8071 176.346 35.1255 177.537 35.4587C178.94 35.8585 180.08 36.2583 180.944 36.6433C181.809 37.0358 182.545 37.6281 183.147 38.4129C183.749 39.2052 184.05 40.2788 184.05 41.6263C184.05 42.7444 183.788 43.7661 183.269 44.6843C182.75 45.6024 181.95 46.328 180.874 46.8685C179.798 47.409 178.472 47.6756 176.903 47.6756C175.468 47.683 174.104 47.4238 172.804 46.8907Z" fill="#056061"/>
<path d="M192.343 27.3585V45.4691H196.231V47.4979H186.451V45.4691H190.339V27.3585H186.451V25.3297H196.231V27.3585H192.343Z" fill="#056061"/>
<path d="M212.582 29.4168C210.699 28.1507 208.618 27.4251 206.338 27.2326V47.4978H204.308V27.2326C202.06 27.4029 199.972 28.1285 198.038 29.4168L197.301 27.5806C199.677 25.9591 202.342 25.1446 205.3 25.1446C208.31 25.1446 210.987 25.9591 213.325 27.5806L212.582 29.4168Z" fill="#056061"/>
<path d="M229.739 27.662C231.174 29.3428 231.891 31.7639 231.891 34.9255V47.4978H229.893V40.9748H217.84V47.4978H215.867V34.9255C215.867 31.7565 216.584 29.3354 218.019 27.662C219.454 25.9813 221.4 25.1446 223.866 25.1446C226.345 25.1446 228.304 25.9813 229.739 27.662ZM229.893 38.946V34.7034C229.893 32.2378 229.361 30.3719 228.304 29.1132C227.248 27.8545 225.768 27.2326 223.866 27.2326C221.964 27.2326 220.491 27.8619 219.428 29.1132C218.371 30.3719 217.84 32.2304 217.84 34.7034V38.946H229.893Z" fill="#056061"/>
<path d="M250.976 47.4979L246.595 40.375C246.102 40.4417 245.59 40.4713 245.058 40.4713H239.909V47.4979H237.885V25.3372H245.058C247.505 25.3372 249.42 26.0109 250.81 27.3659C252.199 28.7209 252.891 30.5719 252.891 32.9413C252.891 34.6738 252.513 36.1324 251.757 37.3245C251.002 38.5166 249.919 39.3755 248.51 39.9012L253.192 47.4979H250.976ZM249.362 37.0136C250.368 36.0436 250.867 34.6812 250.867 32.9264C250.867 31.1346 250.368 29.7575 249.362 28.7949C248.357 27.8324 246.909 27.3511 245.007 27.3511H239.916V38.4648H245.007C246.903 38.4722 248.357 37.9835 249.362 37.0136Z" fill="#056061"/>
<path d="M261.575 27.3585V45.4691H265.463V47.4979H255.683V45.4691H259.571V27.3585H255.683V25.3297H265.463V27.3585H261.575Z" fill="#056061"/>
<path d="M272.789 46.2095C271.246 45.2247 270.042 43.8846 269.171 42.1742C268.3 40.4639 267.871 38.5462 267.871 36.4138C267.871 34.2814 268.306 32.3637 269.171 30.6533C270.036 28.943 271.246 27.5954 272.789 26.618C274.333 25.6333 276.049 25.1446 277.951 25.1446C279.847 25.1446 281.563 25.6333 283.088 26.6032C284.612 27.5732 285.81 28.9207 286.687 30.6385C287.564 32.3637 288 34.2888 288 36.4138C288 38.5462 287.564 40.4713 286.687 42.189C285.81 43.9068 284.612 45.2544 283.088 46.2243C281.563 47.1943 279.853 47.6829 277.951 47.6829C276.056 47.6829 274.333 47.1942 272.789 46.2095ZM282.063 44.4103C283.286 43.618 284.247 42.5222 284.939 41.1154C285.63 39.7086 285.976 38.1464 285.976 36.4138C285.976 34.6812 285.63 33.1189 284.939 31.7121C284.247 30.3053 283.286 29.2095 282.063 28.4172C280.84 27.625 279.469 27.2326 277.958 27.2326C276.44 27.2326 275.069 27.625 273.833 28.4172C272.604 29.2095 271.63 30.3053 270.932 31.7121C270.228 33.1189 269.875 34.6812 269.875 36.4138C269.875 38.1464 270.228 39.7086 270.932 41.1154C271.637 42.5222 272.604 43.618 273.833 44.4103C275.063 45.2025 276.44 45.595 277.958 45.595C279.469 45.595 280.84 45.2025 282.063 44.4103Z" fill="#056061"/>
<path d="M0 38.7831V12.4761C0.262581 6.08627 4.97623 0.414673 9.95886 0.414673H31.7659C39.829 0.414673 48.8336 11.1063 48.8336 17.6812C48.8336 17.6812 50.0184 23.8415 45.4073 27.7953C41.3597 31.2679 14.4612 46.1799 14.4612 46.1799C9.01101 49.2008 0 45.6394 0 38.7831Z" fill="#49BEB6"/>
<path d="M55.9495 0H53.5798V47.6903H55.9495V0Z" fill="#056061"/>
</svg>
