<svg width="30" height="37" viewBox="0 0 30 37" fill="none" xmlns="http://www.w3.org/2000/svg">
<g clip-path="url(#clip0_262_23)">
<path d="M26.5311 10.952C26.548 11.2773 26.548 11.6042 26.548 11.9325C26.548 21.9642 20.562 33.5313 9.61929 33.5313V33.5251C6.387 33.5313 3.22117 32.3504 0.5 30.1227C0.970042 30.1951 1.4425 30.2306 1.91617 30.2321C4.59625 30.2352 7.199 29.0882 9.30513 26.9761C6.75917 26.9145 4.52617 24.7962 3.74679 21.7036C4.63854 21.9225 5.55687 21.8778 6.43292 21.5741C3.65617 20.8588 1.66 17.7462 1.66 14.1325C1.66 14.1001 1.66 14.0677 1.66 14.0369C2.48771 14.6258 3.41329 14.9511 4.36063 14.9866C1.74579 12.7589 0.938625 8.32195 2.51792 4.8532C5.53875 9.59537 9.99629 12.4783 14.7801 12.7851C14.3004 10.1488 14.9565 7.38616 16.5008 5.53154C18.8969 2.65633 22.6657 2.80433 24.9192 5.86145C26.252 5.52691 27.5292 4.90254 28.6977 4.01916C28.253 5.77666 27.3238 7.26899 26.0816 8.21866C27.2622 8.03829 28.4137 7.63591 29.5 7.02233C28.7013 8.54704 27.696 9.87749 26.5311 10.952Z" fill="white"/>
</g>
<defs>
<clipPath id="clip0_262_23">
<rect width="29" height="37" fill="white" transform="translate(0.5)"/>
</clipPath>
</defs>
</svg>
